<svg xmlns="http://www.w3.org/2000/svg" viewBox="0 0 750 500"><g id="freepik--Hearts--inject-133"><path d="M455.58,106.54c-1-10-5.7-19.42-12.29-27-6.45-7.43-14.93-13.35-24.52-15.58A38.3,38.3,0,0,0,376.31,83a38.29,38.29,0,0,0-41.08-18.81c-9.65,2-18.29,7.63-25,14.87-6.8,7.4-11.78,16.68-13.06,26.65-1.61,12.48.61,26.21,6.94,37.09,6.68,11.49,17.62,20.85,28.9,27.87,19,11.81,44,26.61,44,26.61s21.54-15.62,40.85-26.88c11.48-6.7,22.68-15.74,29.7-27C454.22,132.72,456.83,119.06,455.58,106.54Z" style="fill:#B455C3"></path><g style="opacity:0.6000000000000001"><path d="M455.58,106.54c-1-10-5.7-19.42-12.29-27-6.45-7.43-14.93-13.35-24.52-15.58A38.3,38.3,0,0,0,376.31,83a38.29,38.29,0,0,0-41.08-18.81c-9.65,2-18.29,7.63-25,14.87-6.8,7.4-11.78,16.68-13.06,26.65-1.61,12.48.61,26.21,6.94,37.09,6.68,11.49,17.62,20.85,28.9,27.87,19,11.81,44,26.61,44,26.61s21.54-15.62,40.85-26.88c11.48-6.7,22.68-15.74,29.7-27C454.22,132.72,456.83,119.06,455.58,106.54Z" style="fill:#fff"></path></g><path d="M314.49,41.6a8.12,8.12,0,0,0-2-4.43,7.73,7.73,0,0,0-4-2.59,6.33,6.33,0,0,0-4.91.83,6.41,6.41,0,0,0-2.06,2.21,6.29,6.29,0,0,0-1.81-2.06,6.38,6.38,0,0,0-4.87-1.08,7.73,7.73,0,0,0-4.1,2.38,8,8,0,0,0-2.18,4.33,9.81,9.81,0,0,0,1.06,6.07,13.94,13.94,0,0,0,4.68,4.61c3.08,2,7.13,4.42,7.13,4.42S305,53.78,308.21,52a13.84,13.84,0,0,0,4.9-4.37A9.79,9.79,0,0,0,314.49,41.6Z" style="fill:#B455C3"></path><g style="opacity:0.6000000000000001"><path d="M314.49,41.6a8.12,8.12,0,0,0-2-4.43,7.73,7.73,0,0,0-4-2.59,6.33,6.33,0,0,0-4.91.83,6.41,6.41,0,0,0-2.06,2.21,6.29,6.29,0,0,0-1.81-2.06,6.38,6.38,0,0,0-4.87-1.08,7.73,7.73,0,0,0-4.1,2.38,8,8,0,0,0-2.18,4.33,9.81,9.81,0,0,0,1.06,6.07,13.94,13.94,0,0,0,4.68,4.61c3.08,2,7.13,4.42,7.13,4.42S305,53.78,308.21,52a13.84,13.84,0,0,0,4.9-4.37A9.79,9.79,0,0,0,314.49,41.6Z" style="fill:#fff"></path></g><path d="M545.72,108.45a8,8,0,0,0-2-4.43,7.69,7.69,0,0,0-4-2.59,6.33,6.33,0,0,0-4.91.83,6.5,6.5,0,0,0-2.06,2.21,6.17,6.17,0,0,0-1.81-2.06,6.32,6.32,0,0,0-4.86-1.08,7.75,7.75,0,0,0-4.11,2.38,8.11,8.11,0,0,0-2.18,4.33,9.75,9.75,0,0,0,1.07,6.07,13.91,13.91,0,0,0,4.67,4.61c3.08,2,7.13,4.42,7.13,4.42s3.55-2.51,6.73-4.32a14,14,0,0,0,4.9-4.36A9.85,9.85,0,0,0,545.72,108.45Z" style="fill:#B455C3"></path><g style="opacity:0.6000000000000001"><path d="M545.72,108.45a8,8,0,0,0-2-4.43,7.69,7.69,0,0,0-4-2.59,6.33,6.33,0,0,0-4.91.83,6.5,6.5,0,0,0-2.06,2.21,6.17,6.17,0,0,0-1.81-2.06,6.32,6.32,0,0,0-4.86-1.08,7.75,7.75,0,0,0-4.11,2.38,8.11,8.11,0,0,0-2.18,4.33,9.75,9.75,0,0,0,1.07,6.07,13.91,13.91,0,0,0,4.67,4.61c3.08,2,7.13,4.42,7.13,4.42s3.55-2.51,6.73-4.32a14,14,0,0,0,4.9-4.36A9.85,9.85,0,0,0,545.72,108.45Z" style="fill:#fff"></path></g><path d="M238.9,98.81a6,6,0,0,0-1.47-3.33,5.87,5.87,0,0,0-3-2,4.82,4.82,0,0,0-3.7.63,4.71,4.71,0,0,0-1.54,1.66,4.71,4.71,0,0,0-5-2.37,5.88,5.88,0,0,0-3.09,1.8,6,6,0,0,0-1.64,3.25,7.39,7.39,0,0,0,.8,4.57,10.56,10.56,0,0,0,3.51,3.46c2.32,1.48,5.37,3.33,5.37,3.33s2.67-1.89,5.05-3.25a10.5,10.5,0,0,0,3.69-3.28A7.36,7.36,0,0,0,238.9,98.81Z" style="fill:#B455C3"></path><g style="opacity:0.6000000000000001"><path d="M238.9,98.81a6,6,0,0,0-1.47-3.33,5.87,5.87,0,0,0-3-2,4.82,4.82,0,0,0-3.7.63,4.71,4.71,0,0,0-1.54,1.66,4.71,4.71,0,0,0-5-2.37,5.88,5.88,0,0,0-3.09,1.8,6,6,0,0,0-1.64,3.25,7.39,7.39,0,0,0,.8,4.57,10.56,10.56,0,0,0,3.51,3.46c2.32,1.48,5.37,3.33,5.37,3.33s2.67-1.89,5.05-3.25a10.5,10.5,0,0,0,3.69-3.28A7.36,7.36,0,0,0,238.9,98.81Z" style="fill:#fff"></path></g><path d="M455.87,203.34a6.06,6.06,0,0,0-1.48-3.33,5.83,5.83,0,0,0-3-1.95,4.72,4.72,0,0,0-5.24,2.29,4.71,4.71,0,0,0-1.36-1.55,4.81,4.81,0,0,0-3.66-.82,5.81,5.81,0,0,0-3.08,1.8,6.1,6.1,0,0,0-1.65,3.25,7.39,7.39,0,0,0,.81,4.57,10.38,10.38,0,0,0,3.51,3.46c2.32,1.48,5.37,3.33,5.37,3.33s2.66-1.89,5-3.25a10.29,10.29,0,0,0,3.68-3.28A7.43,7.43,0,0,0,455.87,203.34Z" style="fill:#B455C3"></path><g style="opacity:0.6000000000000001"><path d="M455.87,203.34a6.06,6.06,0,0,0-1.48-3.33,5.83,5.83,0,0,0-3-1.95,4.72,4.72,0,0,0-5.24,2.29,4.71,4.71,0,0,0-1.36-1.55,4.81,4.81,0,0,0-3.66-.82,5.81,5.81,0,0,0-3.08,1.8,6.1,6.1,0,0,0-1.65,3.25,7.39,7.39,0,0,0,.81,4.57,10.38,10.38,0,0,0,3.51,3.46c2.32,1.48,5.37,3.33,5.37,3.33s2.66-1.89,5-3.25a10.29,10.29,0,0,0,3.68-3.28A7.43,7.43,0,0,0,455.87,203.34Z" style="fill:#fff"></path></g><path d="M469.62,65.85a3.8,3.8,0,0,0-.37-1.66A4.18,4.18,0,0,0,466.78,62a3.14,3.14,0,0,0-2.47.32,3.22,3.22,0,0,0-1.08,1.06,3,3,0,0,0-.86-1.07,3.22,3.22,0,0,0-2.41-.65,4.18,4.18,0,0,0-2.74,1.88,3.88,3.88,0,0,0-.59,1.6,4.92,4.92,0,0,0,.45,2.81,7,7,0,0,0,2.24,2.41c1.5,1,3.48,2.36,3.48,2.36s1.83-1.18,3.45-2a7,7,0,0,0,2.55-2.08A5,5,0,0,0,469.62,65.85Z" style="fill:#B455C3"></path><g style="opacity:0.6000000000000001"><path d="M469.62,65.85a3.8,3.8,0,0,0-.37-1.66A4.18,4.18,0,0,0,466.78,62a3.14,3.14,0,0,0-2.47.32,3.22,3.22,0,0,0-1.08,1.06,3,3,0,0,0-.86-1.07,3.22,3.22,0,0,0-2.41-.65,4.18,4.18,0,0,0-2.74,1.88,3.88,3.88,0,0,0-.59,1.6,4.92,4.92,0,0,0,.45,2.81,7,7,0,0,0,2.24,2.41c1.5,1,3.48,2.36,3.48,2.36s1.83-1.18,3.45-2a7,7,0,0,0,2.55-2.08A5,5,0,0,0,469.62,65.85Z" style="fill:#fff"></path></g><path d="M281.13,145a3.8,3.8,0,0,0-.63-1.59,4.19,4.19,0,0,0-2.8-1.78,3.15,3.15,0,0,0-3.28,2,3.14,3.14,0,0,0-1-.92,3.2,3.2,0,0,0-2.48-.23,4.18,4.18,0,0,0-2.39,2.31,3.68,3.68,0,0,0-.31,1.67,4.88,4.88,0,0,0,.9,2.7,7.05,7.05,0,0,0,2.61,2c1.66.78,3.83,1.75,3.83,1.75s1.6-1.47,3.07-2.56a7,7,0,0,0,2.16-2.48A4.87,4.87,0,0,0,281.13,145Z" style="fill:#B455C3"></path><g style="opacity:0.6000000000000001"><path d="M281.13,145a3.8,3.8,0,0,0-.63-1.59,4.19,4.19,0,0,0-2.8-1.78,3.15,3.15,0,0,0-3.28,2,3.14,3.14,0,0,0-1-.92,3.2,3.2,0,0,0-2.48-.23,4.18,4.18,0,0,0-2.39,2.31,3.68,3.68,0,0,0-.31,1.67,4.88,4.88,0,0,0,.9,2.7,7.05,7.05,0,0,0,2.61,2c1.66.78,3.83,1.75,3.83,1.75s1.6-1.47,3.07-2.56a7,7,0,0,0,2.16-2.48A4.87,4.87,0,0,0,281.13,145Z" style="fill:#fff"></path></g><rect x="425.33" y="88.26" width="8.48" height="22.54" style="fill:#fff"></rect><rect x="425.33" y="88.26" width="8.48" height="22.54" transform="translate(330.05 529.1) rotate(-90)" style="fill:#fff"></rect></g><g id="freepik--character-5--inject-133"><rect x="575.83" y="444.34" width="109.7" height="13.75" style="fill:#455a64"></rect><polygon points="613.47 273.37 622.8 271.35 656.12 274.09 663.21 277.14 632.81 312.74 613.47 273.37" style="fill:#c78976"></polygon><path d="M670.72,367.94s21.63-63,20.07-67.42-27.91-24.15-27.91-24.15l-28.23,32.3-18.5-37.32s-24.73,9.95-27.58,10.45c-6,1.05-11.24,8-14.12,14.64-7.19,16.57-15.82,45.7-15.82,45.7l26.65,10.65,2.62-5.1c-1.4,6.49-4.24,18.92-7.34,28.3-8.13,24.64-7,71.88-7,71.88l108.35-.3s2.29-30.71.41-47.64S670.72,367.94,670.72,367.94Z" style="fill:#455a64"></path><path d="M642.08,324a3.48,3.48,0,0,1,.56-.22,8.49,8.49,0,0,1,1.73-.38,17.15,17.15,0,0,1,6.65.73c2.79.74,6.08,1.94,9.87,3.23,1.89.64,3.91,1.28,6.08,1.85a28.84,28.84,0,0,0,6.86,1.1h.34l0,.31c-1.62,9-3.52,19.47-5.53,30.66-.11.57-.21,1.14-.31,1.69l-.07.39-.36-.16c-2.57-1.17-5.12-2.27-7.64-3.28a57,57,0,0,0-7.5-2.58,104.43,104.43,0,0,0-14.37-1.89l-.28,0,0-.27c1.17-9.36,2.14-17.16,2.83-22.68.35-2.68.63-4.8.82-6.3l.24-1.65a2.47,2.47,0,0,1,.1-.54s0,.21,0,.59-.1,1-.17,1.69c-.16,1.52-.39,3.66-.68,6.37-.63,5.49-1.51,13.26-2.57,22.58l-.25-.29a103.29,103.29,0,0,1,14.48,1.83,58.49,58.49,0,0,1,7.58,2.59q3.8,1.53,7.68,3.29l-.43.22c.1-.55.2-1.12.3-1.69,2-11.19,4-21.68,5.61-30.65l.28.32a29.1,29.1,0,0,1-7-1.17c-2.17-.58-4.21-1.25-6.1-1.91-3.78-1.32-7-2.56-9.8-3.34a17.67,17.67,0,0,0-6.55-.86A18.66,18.66,0,0,0,642.08,324Z" style="fill:#263238"></path><polygon points="690.79 300.52 707.09 361.98 674.07 373.94 670.72 367.94 690.79 300.52" style="fill:#455a64"></polygon><path d="M573.56,436l.27,0,.79.13,3,.5c2.63.42,6.45,1,11.2,1.35a50.25,50.25,0,0,0,7.76,0,16.92,16.92,0,0,0,2.09-.29c.35-.08.71-.12,1-.22l1-.34c1.39-.39,2.15-1.84,2.78-3.22a26.15,26.15,0,0,0,1.4-4.57c.36-1.6.65-3.26.88-4.95.48-3.39.79-6.92,1-10.55.47-7.92.53-15.47.42-22.14l.27.27-22.06-.46-6.26-.18-1.66-.07a3.54,3.54,0,0,1-.57,0,2.25,2.25,0,0,1,.57,0h1.66l6.27,0,22.06.23h.27v.27c.15,6.69.1,14.24-.37,22.19-.23,3.64-.54,7.19-1,10.6-.24,1.7-.54,3.37-.91,5a25.63,25.63,0,0,1-1.46,4.67,9.3,9.3,0,0,1-1.18,2.08,5.76,5.76,0,0,1-.84.87,3.77,3.77,0,0,1-1.08.54l-1.08.35c-.36.1-.73.15-1.09.23a17.83,17.83,0,0,1-2.15.28,49.37,49.37,0,0,1-7.83-.07,106.89,106.89,0,0,1-11.21-1.54c-1.31-.25-2.33-.47-3-.62l-.78-.19Z" style="fill:#263238"></path><path d="M607.25,399.44c0,.16-7,.3-15.71.3s-15.71-.14-15.71-.3,7-.31,15.71-.31S607.25,399.27,607.25,399.44Z" style="fill:#263238"></path><path d="M587.3,337.84A10.1,10.1,0,0,1,587,336c-.18-1.21-.41-3-.65-5.14a168.18,168.18,0,0,1-1-17.09,146.31,146.31,0,0,1,.89-17.09c.25-2.18.48-3.94.69-5.14a11.65,11.65,0,0,1,.37-1.87,12.15,12.15,0,0,1-.13,1.9c-.14,1.21-.31,3-.5,5.15-.39,4.35-.75,10.38-.71,17.05s.46,12.69.82,17c.19,2.09.34,3.83.46,5.15A11.78,11.78,0,0,1,587.3,337.84Z" style="fill:#263238"></path><path d="M670.72,282.4a8.06,8.06,0,0,1-.55.8l-1.65,2.26-6.23,8.29-21.13,27.79-.09.12H627.5l-.08-.18C621.36,308.67,616,297.28,612.08,289c-1.9-4.07-3.43-7.37-4.51-9.69q-.77-1.66-1.2-2.64c-.12-.27-.21-.5-.29-.69s-.1-.23-.09-.24a.83.83,0,0,1,.14.22c.09.18.21.4.35.66.31.64.74,1.5,1.29,2.59l4.68,9.62L628,321.23l-.27-.18h13.22l-.24.12L662,293.5l6.37-8.18,1.74-2.19A5.5,5.5,0,0,1,670.72,282.4Z" style="fill:#263238"></path><path d="M668.33,394.71a4.93,4.93,0,0,1-.86-1c-.52-.65-1.23-1.64-2.06-2.89a65,65,0,0,1-5.54-10.33,63.91,63.91,0,0,1-3.57-11.18c-.32-1.46-.54-2.66-.64-3.49a5.25,5.25,0,0,1-.12-1.3c.1,0,.44,1.8,1.18,4.69a80.39,80.39,0,0,0,3.72,11,79.08,79.08,0,0,0,5.34,10.34C667.34,393.14,668.41,394.65,668.33,394.71Z" style="fill:#263238"></path><path d="M660.1,377.12c-.1-.15,2.75-2.13,6-4.89s5.63-5.26,5.76-5.14-2.09,2.81-5.36,5.6A28.52,28.52,0,0,1,660.1,377.12Z" style="fill:#263238"></path><path d="M675.21,376.29a2.15,2.15,0,0,1-.27-.41l-.7-1.25-2.55-4.73,0-.06,0-.07c1.72-6.62,4.63-17.47,8-29.71,2.78-10.1,5.31-19.24,7.15-25.94l2.24-7.84c.26-.88.47-1.58.64-2.13a4,4,0,0,1,.26-.73,3.9,3.9,0,0,1-.14.77c-.14.55-.31,1.26-.53,2.15-.5,1.94-1.2,4.62-2,7.89-1.8,6.72-4.26,15.87-7,26-3.33,12.24-6.33,23.07-8.2,29.65l0-.13,2.41,4.8c.25.52.45.95.62,1.29A1.68,1.68,0,0,1,675.21,376.29Z" style="fill:#263238"></path><g style="opacity:0.30000000000000004"><path d="M587.3,337.84a41.59,41.59,0,0,1-1.36-35.62S586.09,332,587.3,337.84Z"></path></g><path d="M672.28,337.19a5.14,5.14,0,0,1-1.26-.11c-.8-.11-2-.3-3.38-.55-2.85-.51-6.77-1.31-11-2.37s-8.13-2.17-10.89-3.05c-1.38-.44-2.48-.81-3.24-1.09a4.67,4.67,0,0,1-1.17-.49,5.41,5.41,0,0,1,1.24.26l3.3.91c2.78.77,6.63,1.81,10.9,2.87s8.17,1.92,11,2.53l3.34.74A4.53,4.53,0,0,1,672.28,337.19Z" style="fill:#263238"></path><g style="opacity:0.30000000000000004"><path d="M638.35,355.19s20.89,10.16,29.63,7.73C668,362.92,653.08,354.58,638.35,355.19Z"></path></g><g style="opacity:0.30000000000000004"><path d="M672.8,367.09s16.11-10.09,13-49.62Z"></path></g><path d="M676.29,447.87c0,.17-22.77.31-50.86.31s-50.85-.14-50.85-.31,22.76-.3,50.85-.3S676.29,447.71,676.29,447.87Z" style="fill:#263238"></path><path d="M696.61,365.82s2.31,38.33,1.37,44.29S693.67,443,693.67,443l-13.57-2.82-3.69-67.08Z" style="fill:#c78976"></path><path d="M674.49,458.09a22.1,22.1,0,0,1,.17-3.67c.46-2.17,5.37-15.66,5.37-15.66l13.56,2.82.23.52c1.11,2.54,5.89,13.56,5.89,14.06,0,.13,0,1.16-.1,1.93l-16.29.06-.47-3.42s-.55,1.63-1.15,3.31Z" style="fill:#c78976"></path><g style="opacity:0.30000000000000004"><path d="M576.06,448c15.44,6.11,32.59,5.54,49.18,4.88,17.49-.7,35.09-1.41,52.17-5.26Z"></path></g><path d="M654.89,255.81a21.47,21.47,0,0,0,12-16.53c.37-3,.09-6.06.78-9,1-4.2,3.92-8,3.77-12.29-.1-2.87-1.57-5.51-2-8.35s.07-5.53-.07-8.29a17.91,17.91,0,0,0-12.13-15.74l-17.7-5.76L613.8,192.57s-14,15.72-7.54,45.53Z" style="fill:#B455C3"></path><path d="M609.35,240.53a5,5,0,0,0-2-1.37h.16a3.25,3.25,0,0,0-.43-.08,2,2,0,0,0-1.6.16h0a3.8,3.8,0,0,0-2.1,1.76,4.47,4.47,0,0,0,.45,4.6,3.73,3.73,0,0,0,3.67,1.59,3.78,3.78,0,0,0,2.6-2.65A4.26,4.26,0,0,0,609.35,240.53Z" style="fill:#455a64"></path><path d="M607.68,213c1.07-9.74,8.1-21.42,17.79-19.94l30,9.09a5.73,5.73,0,0,1,4.86,6l-4.05,65.07a17.89,17.89,0,0,1-15.37,16.6h0a17.88,17.88,0,0,1-20.36-17.77c0-4.47,0-7.83,0-7.81s-12.38-2.65-14.21-19.05C605.47,237,606.5,223.78,607.68,213Z" style="fill:#c78976"></path><path d="M613.48,227a2.09,2.09,0,0,0,1.91,2.2,2,2,0,0,0,2.24-1.79,2.09,2.09,0,0,0-1.91-2.2A2,2,0,0,0,613.48,227Z" style="fill:#263238"></path><path d="M610.24,220c.25.29,1.89-.81,4.13-.7s3.84,1.31,4.1,1-.11-.62-.81-1.18A5.74,5.74,0,0,0,614.4,218a5.65,5.65,0,0,0-3.31.9C610.38,219.39,610.12,219.87,610.24,220Z" style="fill:#263238"></path><path d="M634.35,227a2.1,2.1,0,0,0,1.92,2.2,2,2,0,0,0,2.24-1.79,2.1,2.1,0,0,0-1.92-2.2A2,2,0,0,0,634.35,227Z" style="fill:#263238"></path><path d="M632.31,221.45c.25.28,1.89-.81,4.13-.7s3.84,1.31,4.1,1c.13-.11-.11-.62-.81-1.17a5.67,5.67,0,0,0-3.26-1.18,5.51,5.51,0,0,0-3.31.9C632.45,220.84,632.19,221.32,632.31,221.45Z" style="fill:#263238"></path><path d="M623.38,237.73a15.28,15.28,0,0,0-3.62-.82c-.57-.09-1.11-.23-1.18-.63a2.88,2.88,0,0,1,.46-1.68q.9-2,1.9-4.29c2.64-6.11,4.59-11.15,4.34-11.25s-2.59,4.76-5.24,10.88q-1,2.25-1.83,4.32a3.36,3.36,0,0,0-.4,2.23,1.46,1.46,0,0,0,.91.89,3.8,3.8,0,0,0,1,.18A14.15,14.15,0,0,0,623.38,237.73Z" style="fill:#263238"></path><path d="M620.59,264.25a41.43,41.43,0,0,0,22.08-4.8s-5.81,10.94-22,8.66Z" style="fill:#a26760"></path><path d="M623.47,243.09a5.56,5.56,0,0,1,4.66-2.2,3.59,3.59,0,0,1,2.88,1.75,3.3,3.3,0,0,1-3.93,4.77,8.32,8.32,0,0,1-3.21-2.2,2.64,2.64,0,0,1-.67-.88,1.13,1.13,0,0,1,.14-1.13" style="fill:#a26760"></path><path d="M629.92,239.6c-.36,0-.48,2.4-2.65,4s-4.75,1.25-4.78,1.59c0,.15.55.5,1.65.58a6.14,6.14,0,0,0,4-1.19,5.28,5.28,0,0,0,2.06-3.39C630.34,240.21,630.09,239.59,629.92,239.6Z" style="fill:#263238"></path><path d="M631.75,212.15c.19.62,2.45.44,5.07.88s4.72,1.26,5.1.72c.17-.25-.18-.84-1-1.47a8.43,8.43,0,0,0-3.73-1.51,8.62,8.62,0,0,0-4,.28C632.18,211.4,631.67,211.86,631.75,212.15Z" style="fill:#263238"></path><path d="M611.39,212.31c.38.52,2,.07,3.81.13s3.42.5,3.81,0c.17-.25,0-.77-.72-1.29a5.28,5.28,0,0,0-3-1,5.4,5.4,0,0,0-3.09.89C611.47,211.53,611.23,212.05,611.39,212.31Z" style="fill:#263238"></path><path d="M638.23,195.85a57.67,57.67,0,0,1,21.81,4c2.06.81,4.2,1.84,5.37,3.72a10.28,10.28,0,0,1,1.12,5.65c-.08,6.1-2.55,13.56-4.89,19.2l-2.84,4.87c-4.24-1-7.94-11.85-7.64-16.92a12,12,0,0,1-7-10.6A13.31,13.31,0,0,1,638.23,195.85Z" style="fill:#263238"></path><path d="M654.13,230.75c.23-3.48,4.52-4.15,7.51-2.35,1.65,1,2.88,2.95,2.66,6.65-.58,9.88-10.38,7.25-10.38,7S653.85,234.84,654.13,230.75Z" style="fill:#c78976"></path><path d="M657.16,238.45c.05,0,.17.13.45.29a1.76,1.76,0,0,0,1.28.1c1.07-.32,2.05-1.93,2.2-3.71a5.78,5.78,0,0,0-.33-2.49,2,2,0,0,0-1.22-1.4.87.87,0,0,0-1,.42c-.15.26-.1.47-.15.48s-.21-.18-.1-.58a1.09,1.09,0,0,1,.42-.6,1.3,1.3,0,0,1,1-.19,2.44,2.44,0,0,1,1.71,1.64,5.87,5.87,0,0,1,.43,2.78c-.18,2-1.31,3.79-2.76,4.12a1.84,1.84,0,0,1-1.56-.35C657.17,238.69,657.13,238.47,657.16,238.45Z" style="fill:#a26760"></path><path d="M662.68,240.67a5.15,5.15,0,0,0-2-1.37h.16a3.11,3.11,0,0,0-.44-.08,2,2,0,0,0-1.59.17h0a3.8,3.8,0,0,0-2.09,1.75,4.45,4.45,0,0,0,.44,4.6,3.41,3.41,0,0,0,6.28-1A4.25,4.25,0,0,0,662.68,240.67Z" style="fill:#455a64"></path><path d="M667,195.63c-2.36-4.47-7.41-7-12.43-7.65a27.32,27.32,0,0,0-4.43-.17,16.14,16.14,0,0,0,.19-6,17.25,17.25,0,0,0-10.6-12.93c-5.22-2-11.08-1.46-16.21.74-4.81,2.07-9.24,5.71-11.35,10.85s-1.45,11.83,2.41,15.67c4.41,3.49,9.29,4.76,14.67,5.48a19.87,19.87,0,0,0,13.62-3c13.08,9.26,17.38,25.81,20.52,40.85,4.69-9.83,5.06-21.09,5.34-32C668.82,203.47,668.88,199.22,667,195.63Z" style="fill:#B455C3"></path><path d="M652.46,197.79c.14-.14-.62-1.06-1.68-2s-2-1.67-2.17-1.53.62,1.06,1.69,2S652.33,197.94,652.46,197.79Z" style="fill:#263238"></path><path d="M623.55,194.84c.08-.09-1-1-2.41-2.83a18,18,0,0,1-2.63-16.84c.75-2.16,1.55-3.36,1.44-3.43s-.28.25-.64.79A15.13,15.13,0,0,0,618,175a17.09,17.09,0,0,0,2.7,17.32,14.82,14.82,0,0,0,2,2C623.21,194.69,623.52,194.88,623.55,194.84Z" style="fill:#263238"></path><path d="M629.13,185.92c.06-.08-.63-.74-1.78-1.77a37.49,37.49,0,0,1-4.18-4.24,15.86,15.86,0,0,1-2.84-5.14c-.45-1.44-.49-2.4-.61-2.4a5,5,0,0,0,.12,2.53,13.67,13.67,0,0,0,2.77,5.46,26.1,26.1,0,0,0,4.42,4.18A8,8,0,0,0,629.13,185.92Z" style="fill:#263238"></path><g style="opacity:0.30000000000000004"><path d="M650.46,183a18.14,18.14,0,0,1-7.52,15.75l.19.26a9.95,9.95,0,0,0,7.33-16Z"></path></g><path d="M663.8,203.71c-.13-.16-1.45.82-3.17,1.85s-3.2,1.75-3.13,1.94,1.71-.25,3.5-1.33S663.93,203.84,663.8,203.71Z" style="fill:#fff"></path><path d="M670.58,213.37c-.07-.19-2,.35-4.36.74s-4.37.49-4.37.69,2,.42,4.48,0S670.65,213.54,670.58,213.37Z" style="fill:#fff"></path><path d="M656.33,185.47c-.2.08.7,2.67,1.21,6s.45,6,.66,6.07.58-2.77,0-6.18S656.49,185.39,656.33,185.47Z" style="fill:#fff"></path><path d="M653.92,203.08c0-.2-1.27,0-2.76,0s-2.72,0-2.75.23,1.21.56,2.79.48S654,203.26,653.92,203.08Z" style="fill:#fff"></path><path d="M664.48,221.12c-.15-.12-1.4,1.18-2.5,3.1s-1.62,3.65-1.45,3.71,1-1.49,2.06-3.35S664.63,221.24,664.48,221.12Z" style="fill:#fff"></path><path d="M637.3,195.07a26.37,26.37,0,0,0-1.61-3.8l-4.14-9c-1.52-3.45-2.91-6.56-4-9.09a26.17,26.17,0,0,0-1.77-3.73,21.76,21.76,0,0,0,1.31,3.92c.91,2.38,2.24,5.64,3.84,9.19s3.15,6.71,4.33,9A22,22,0,0,0,637.3,195.07Z" style="fill:#fff"></path><path d="M644.48,175.57a10.48,10.48,0,0,0-2.51-1.51,48.54,48.54,0,0,0-13.4-4.42,10.08,10.08,0,0,0-2.92-.27c0,.21,4.37.94,9.56,2.66S644.38,175.77,644.48,175.57Z" style="fill:#fff"></path><path d="M616.83,183.39c-.13-.13-2,1.87-2.91,5s-.6,5.81-.42,5.77.16-2.58,1.1-5.56S617,183.52,616.83,183.39Z" style="fill:#fff"></path><path d="M636.76,201.16c0-.21-1.91.05-4-.77s-3.32-2.25-3.48-2.11.9,1.89,3.22,2.77S636.84,201.33,636.76,201.16Z" style="fill:#fff"></path><path d="M649.7,190c.18,0-.09-1.85-1.35-3.67s-2.87-2.72-3-2.56,1.2,1.26,2.37,3S649.5,190.07,649.7,190Z" style="fill:#fff"></path><path d="M607.57,213.76c.1-.18-.37-.65-.84-1.29s-.79-1.22-1-1.17-.15.84.42,1.6S607.48,213.92,607.57,213.76Z" style="fill:#fff"></path><path d="M647.34,195.45c-.08.09,1.61,1.7,4.06,4.54a73.21,73.21,0,0,1,14.35,25.36c1.17,3.57,1.68,5.85,1.8,5.82a7.07,7.07,0,0,0-.24-1.62c-.19-1-.55-2.53-1.08-4.35a64.77,64.77,0,0,0-14.45-25.54,44.28,44.28,0,0,0-3.17-3.17A6.25,6.25,0,0,0,647.34,195.45Z" style="fill:#263238"></path><path d="M669.47,210.6a17.39,17.39,0,0,0-2.21-3.51,52.82,52.82,0,0,0-14.63-13.53,18.29,18.29,0,0,0-3.67-1.93,38,38,0,0,0,3.39,2.35,67.7,67.7,0,0,1,14.51,13.42A39.76,39.76,0,0,0,669.47,210.6Z" style="fill:#263238"></path><path d="M641.57,170.18c-.06,0,.47.64,1.18,1.87a16.6,16.6,0,0,1,2,5.6,17.28,17.28,0,0,1-.84,8.67,17.91,17.91,0,0,1-6.59,8.31,20,20,0,0,1-10.06,3.54,20.94,20.94,0,0,1-8.7-1.11,14.14,14.14,0,0,1-5-3.13c-1-1-1.4-1.69-1.47-1.64a1.76,1.76,0,0,0,.27.5,9.26,9.26,0,0,0,1,1.33,13.6,13.6,0,0,0,5,3.41,21,21,0,0,0,8.93,1.3,20.31,20.31,0,0,0,10.42-3.62,18.31,18.31,0,0,0,6.8-8.66,17.39,17.39,0,0,0,.71-9A15.77,15.77,0,0,0,643,171.9a11.63,11.63,0,0,0-1-1.31C641.73,170.3,641.59,170.16,641.57,170.18Z" style="fill:#263238"></path><path d="M649.63,179.69c-.12,0,.22,1.46.35,3.81a19.21,19.21,0,0,1-1.51,8.91,14,14,0,0,1-6.06,6.53,25.91,25.91,0,0,1-3.55,1.34,2.68,2.68,0,0,0,1,0,9.83,9.83,0,0,0,2.73-.85,13.66,13.66,0,0,0,6.49-6.68,18,18,0,0,0,1.36-9.25,18.21,18.21,0,0,0-.5-2.79A2.82,2.82,0,0,0,649.63,179.69Z" style="fill:#263238"></path><g style="opacity:0.30000000000000004"><path d="M659,209.75c3,5.16,4.58,9.84,6.73,15.39.68,1.75,1.33,3.63.92,5.46-.08.36-.33.79-.69.7s-.33-.33-.41-.55a235.37,235.37,0,0,0-10.39-26.09Z"></path></g><g style="opacity:0.30000000000000004"><path d="M618.54,173.73c-2.28,7.43-1.31,15.34,4.63,21a7.36,7.36,0,0,1-5.69-4.36A17.41,17.41,0,0,1,618.54,173.73Z"></path></g><path d="M662.46,271.94a8.23,8.23,0,0,0-5.8-4.46l-.09,1.52c2.07.25,3.75,2.19,4.62,3.68,1,1.73,1.5,4.26,1.46,7.52-.1,8.24-.39,16.09-.4,16.17l1.47.05c0-.08.3-7.94.4-16.2C664.16,276.68,663.6,273.9,662.46,271.94Z" style="fill:#B455C3"></path><path d="M656.74,312.22l-2-.14c0-.39.73-9.59,2.6-12.91a8.16,8.16,0,0,1,6.56-4,7.08,7.08,0,0,1,6.1,2.27c2.24,2.84,2.73,12.52,2.78,13.62l-2,.09c-.13-2.8-.8-10.49-2.36-12.47a5,5,0,0,0-4.37-1.51,6.17,6.17,0,0,0-5,3C657.72,302.59,656.93,309.69,656.74,312.22Z" style="fill:#B455C3"></path><path d="M662.25,347.09a11.44,11.44,0,0,1-5.29-1.53l.47-.88c3.22,1.7,5.92,1.85,8,.45,8.44-5.64,5.86-33.72,5.84-34l1-.09C672.4,312.22,675,340,666,346A6.68,6.68,0,0,1,662.25,347.09Z" style="fill:#e0e0e0"></path><path d="M659.16,346h0a1.2,1.2,0,0,1-1.42.65l-2.59-.75a1.44,1.44,0,0,1-1.08-1.73h0a1.43,1.43,0,0,1,2-1l2.53,1.22A1.19,1.19,0,0,1,659.16,346Z" style="fill:#e0e0e0"></path><path d="M665.3,346.72a6.77,6.77,0,0,1-3.88-1.17c-8.76-5.91-6.28-32.33-6.17-33.45l1,.1c0,.27-2.53,26.94,5.74,32.52,2.15,1.46,4.93,1.32,8.25-.42l.47.89A11.91,11.91,0,0,1,665.3,346.72Z" style="fill:#e0e0e0"></path><path d="M668.5,345.58h0a1.19,1.19,0,0,0,1.41.65l2.6-.73a1.44,1.44,0,0,0,1.09-1.72h0a1.44,1.44,0,0,0-2-1l-2.54,1.2A1.2,1.2,0,0,0,668.5,345.58Z" style="fill:#e0e0e0"></path><path d="M611.19,307.93a208.67,208.67,0,0,1,.71-26.33c1.38-12.33,8.65-12.93,9-13l.13,2-.06-1,.07,1c-.24,0-5.93.61-7.11,11.17a207.19,207.19,0,0,0-.7,26Z" style="fill:#B455C3"></path><path d="M591,311.43l-1-2.51a1,1,0,0,1,.54-1.24l14.09-5.47a1,1,0,0,1,1.23.54l1.09,2.77Z" style="fill:#e0e0e0"></path><path d="M576.33,319l23.59,64.76a2.57,2.57,0,0,0,3.17,1.58l44-13.4a2.58,2.58,0,0,0,1.7-3.3l-23.14-67.83a2.59,2.59,0,0,0-3.34-1.59l-44.47,16.48A2.58,2.58,0,0,0,576.33,319Z" style="fill:#263238"></path><path d="M560.72,342.71s-6.66,20.62-4.63,27.42a12.45,12.45,0,0,0,3.87,5.16c7.58,6.76,10.83,6.07,22.63,1.83l39.13-15.79-7.37-16.41-34.77,5.33Z" style="fill:#c78976"></path><path d="M642.79,333.63a1.45,1.45,0,0,0-1.71-1.45c-2.84.45-10.51,1.74-13.1,2.95-3.2,1.49-14.35,9.9-14.35,9.9L620,362l20.83-2.22s6.48-4.36,6.34-5.76a24,24,0,0,0-.6-2.59l1.93-1.47c2.83-2.51.19-6,.19-6a4.73,4.73,0,0,0,1.73-3.78,3.48,3.48,0,0,0-2.22-3s.37-3.24-1.38-3.81-4.31.95-4.31.95A1.16,1.16,0,0,0,642.79,333.63Z" style="fill:#c78976"></path><path d="M644,333.78a2.21,2.21,0,0,1-.56.3,16.14,16.14,0,0,1-1.6.62c-1.36.48-3.29,1-5.41,1.59A47.71,47.71,0,0,0,631,338c-1.33.54-2,1.1-2.07,1.05s.15-.17.47-.43a10,10,0,0,1,1.49-.87,33.7,33.7,0,0,1,5.35-1.84c2.12-.59,4.05-1.07,5.43-1.48A22.72,22.72,0,0,1,644,333.78Z" style="fill:#a26760"></path><path d="M648.19,337.1A4.49,4.49,0,0,1,647,338a22.36,22.36,0,0,1-3.33,1.59c-1.35.51-2.59.91-3.49,1.17a6.35,6.35,0,0,1-1.48.37,45.57,45.57,0,0,1,4.83-1.9c1.33-.51,2.5-1,3.34-1.46A9.76,9.76,0,0,1,648.19,337.1Z" style="fill:#a26760"></path><path d="M648.75,344a15.3,15.3,0,0,1-3.88,2.06,15.15,15.15,0,0,1-4.23,1.21c0-.11,1.85-.66,4.08-1.56S648.69,343.89,648.75,344Z" style="fill:#a26760"></path><path d="M648.51,350a10.08,10.08,0,0,1-3,1.67,10.42,10.42,0,0,1-3.27,1,29.92,29.92,0,0,1,3.12-1.3A30.88,30.88,0,0,1,648.51,350Z" style="fill:#a26760"></path><path d="M638,348.13s-.17.21-.55.3a2.23,2.23,0,0,1-2.57-1.26c-.16-.36-.15-.61-.1-.62s.36.9,1.32,1.38A3.92,3.92,0,0,0,638,348.13Z" style="fill:#a26760"></path><path d="M638.53,354.26c0,.09-.72.27-1.47-.22s-.92-1.23-.82-1.25.39.54,1,.93S638.53,354.15,638.53,354.26Z" style="fill:#a26760"></path><path d="M634.32,342.31c0,.09-.45.35-1,.05s-.63-.85-.52-.85.29.31.7.52S634.28,342.21,634.32,342.31Z" style="fill:#a26760"></path></g><g id="freepik--character-4--inject-133"><path d="M557.74,190.33c-2.46-2.74-5.46-5.34-6.27-8.93-.74-3.3.49-7-1.19-10-2.08-3.61-7.41-4-9.92-7.34-1.22-1.61-1.61-3.72-2.81-5.34-2-2.76-5.94-3.44-9.36-3s-6.68,1.68-10.11,2c-4.7.39-9.57-1.07-14.07.34-5,1.55-7.95,6-11.14,10.32l-4.16,5a18.76,18.76,0,0,1-2.78,2.33c-1.76,1.17-3.79,2-5.3,3.48a8.32,8.32,0,0,0,.71,12,8.9,8.9,0,0,0-5.88,8.82,25.86,25.86,0,0,0,1.69,6c.65,2,1.06,4.2.25,6.13s-3.24,3.28-5.07,2.27a9.4,9.4,0,0,0,5.19,6.18,5.62,5.62,0,0,1-3.75,1.72c3.94,8.91,14.39,13.47,24.13,13.38s19-3.92,28-7.68l26.12-7.2c2.3-.56,3.21-3.37,3.14-5.73s-.7-4.81.11-7c1.12-3,4.61-4.7,5.77-7.72C562.35,196.85,560.2,193.07,557.74,190.33Z" style="fill:#263238"></path><path d="M520.08,162.27l-1.44-.06c-15.61.24-24.12,13.63-23.45,29.22l-.58,53.7a18.26,18.26,0,0,0,17.11,18.43h0a18.26,18.26,0,0,0,19.4-17.36c.14-2.82.24-4.8.25-4.8s15.06-1.68,15.89-16.63c.4-7.22,0-22.16-.5-35.68A27.89,27.89,0,0,0,520.08,162.27Z" style="fill:#ffbe9d"></path><path d="M531.37,241.4a36.18,36.18,0,0,1-19.23-6.59s4,11.12,19,10.41Z" style="fill:#eb996e"></path><path d="M540.49,201.05a2.14,2.14,0,0,1-2.15,2.07,2,2,0,0,1-2.12-2,2.14,2.14,0,0,1,2.15-2.07A2,2,0,0,1,540.49,201.05Z" style="fill:#263238"></path><path d="M543.3,195.16c-.28.27-1.84-1-4.14-1.09s-4,1-4.27.69c-.12-.13.17-.62.93-1.12a5.84,5.84,0,0,1,3.43-.9,5.63,5.63,0,0,1,3.28,1.22C543.22,194.53,543.43,195,543.3,195.16Z" style="fill:#263238"></path><path d="M518.68,201.05a2.15,2.15,0,0,1-2.16,2.07,2.06,2.06,0,0,1-2.12-2,2.15,2.15,0,0,1,2.16-2.06A2,2,0,0,1,518.68,201.05Z" style="fill:#263238"></path><path d="M520.74,195.13c-.28.26-1.85-1-4.14-1.1s-4,1-4.27.7c-.12-.13.17-.63.93-1.13a5.94,5.94,0,0,1,3.43-.9,5.67,5.67,0,0,1,3.29,1.22C520.66,194.49,520.88,195,520.74,195.13Z" style="fill:#263238"></path><path d="M528.23,213.14a15.5,15.5,0,0,1,3.76-.51c.59,0,1.15-.13,1.27-.52a3,3,0,0,0-.32-1.76l-1.54-4.55c-2.14-6.46-3.66-11.77-3.4-11.85s2.21,5.09,4.34,11.55q.78,2.4,1.47,4.57a3.36,3.36,0,0,1,.21,2.32,1.5,1.5,0,0,1-1,.82,4.19,4.19,0,0,1-1,.09C529.68,213.33,528.23,213.28,528.23,213.14Z" style="fill:#263238"></path><path d="M521.4,214.44c.37,0,.27,2.49,2.33,4.36s4.72,1.7,4.73,2c0,.16-.61.46-1.74.44a6.21,6.21,0,0,1-4-1.57,5.41,5.41,0,0,1-1.8-3.64C520.92,215,521.22,214.42,521.4,214.44Z" style="fill:#263238"></path><path d="M521,185.79c-.26.62-2.54.22-5.25.43s-4.93.85-5.26.28c-.15-.28.26-.85,1.16-1.42a8.83,8.83,0,0,1,3.94-1.19,8.58,8.58,0,0,1,4.06.66C520.65,185,521.13,185.5,521,185.79Z" style="fill:#263238"></path><path d="M542.68,187.48c-.43.5-2-.11-3.89-.21s-3.54.2-3.88-.36c-.15-.28.12-.79.85-1.25a5.29,5.29,0,0,1,3.2-.72,5.42,5.42,0,0,1,3.06,1.18C542.67,186.69,542.87,187.23,542.68,187.48Z" style="fill:#263238"></path><path d="M495.94,202.56c-.25-.12-10.15-3.48-10.26,6.76s10.19,8.24,10.21,7.94S495.94,202.56,495.94,202.56Z" style="fill:#ffbe9d"></path><path d="M492.81,213.35c-.05,0-.18.12-.49.26a1.76,1.76,0,0,1-1.33,0c-1.08-.41-2-2.14-2-4a5.82,5.82,0,0,1,.53-2.55,2.06,2.06,0,0,1,1.35-1.36.9.9,0,0,1,1.05.5c.14.29.07.5.12.51s.22-.16.15-.59a1.11,1.11,0,0,0-.4-.64,1.33,1.33,0,0,0-1-.28,2.52,2.52,0,0,0-1.88,1.57,6,6,0,0,0-.65,2.85c0,2.06,1.07,4,2.55,4.45a1.91,1.91,0,0,0,1.63-.25C492.78,213.6,492.84,213.37,492.81,213.35Z" style="fill:#eb996e"></path><path d="M495.6,172.54a21.48,21.48,0,0,1,6.66-7.34,30.74,30.74,0,0,1,9.85-5.57,22.51,22.51,0,0,1,17.3,1,13.36,13.36,0,0,1,4.89,4.17c3.67,2.28,7.32,6.53,5.87,7.33l-2-2.15s-.88,1.83-4.59,4.64a1.78,1.78,0,0,1-.27.17,5.08,5.08,0,0,1-1.07.6l-.21.13c-4.37,1.46-7.21.87-11.56-.65-3-1-5.75-2.76-8.67-4a10.63,10.63,0,0,0-7,2.61,6.56,6.56,0,0,0-.84.84,6.13,6.13,0,0,0-.73,5.11c.4,1.74,1.2,3.35,1.7,5.06.91,3.14.77,6.48.62,9.74-.21,4.6-.47,9.39-2.73,13.39-1,1.88-3.35,3.75-5.22,1.75a4.33,4.33,0,0,1-1.06-3.13c.13-3.12-2.61-4.56-4-6.82A12.33,12.33,0,0,1,491,193.1,40.25,40.25,0,0,1,495.6,172.54Z" style="fill:#263238"></path><path d="M495.94,244.13s12.31,11.42,22.23,11.36,12.3-5.26,12.3-5.26l5.59,7.11s.52,46.39,1.14,47.19-5.83,4.85-5.83,4.85l-32.92-47.25Z" style="fill:#B455C3"></path><path d="M565.66,414.55s4.66-1.53,5.93-5.85-2.21-47.5-2.21-47.5l-2.62-2.6,2-1.61V343.28L564.1,314.4s-4.59-39.67-10.16-42.51l-8.64,39.28,6.35,92.12Z" style="fill:#ebebeb"></path><path d="M530.47,250.23h0l.65-4c1.5,1.17,5.48,7.4,5.48,7.4,5.47,4.62,16.88,16.3,18.95,20.87,3,6.49,3.25,36.28,3.25,36.28l-1.46,147.34-98.54.15,1.59-66.75,3.13-131.69,24.19-12.17,6.48-7.13,40.75,66.41-.29-44.72A19.58,19.58,0,0,0,530.47,250.23Z" style="fill:#ebebeb"></path><path d="M426.56,371.05a21.72,21.72,0,0,1-1.44-16.19c5.54-18.52,22.78-75.84,25.92-83,3.45-7.83,13.28-12.49,13.28-12.49l15.13,39.74-3.85,18.52-13.86,39.58h0l40.56,47.45-29,23.84s-43.71-51.7-46.66-57.31Z" style="fill:#ebebeb"></path><path d="M533,409.06c-.31-.11-10.6,1.75-12.55,1.24a65.63,65.63,0,0,0-11-2.06c-4.73-.41-9.92-1.28-9.92-1.28l-20,16.46,8.23,2.92a30.84,30.84,0,0,0,12.65-1.44c7.41-2.26,19.44-8.43,19.44-8.43a46.76,46.76,0,0,0,8.23-.41C531.57,415.44,537.33,410.71,533,409.06Z" style="fill:#ffbe9d"></path><path d="M536.58,458.24a1.79,1.79,0,0,1,0-.4l0-1.19v-4.54c0-4,.06-9.69.1-16.73.1-14.12.34-33.63.3-55.18,0-10.77-.12-21-.3-30.37-.1-4.67-.2-9.11-.3-13.26s-.36-8-.52-11.53c-.3-7-.55-12.74-.72-16.71-.07-1.95-.13-3.48-.17-4.55,0-.5,0-.89,0-1.18a1.55,1.55,0,0,1,0-.4s0,.13,0,.4,0,.68.08,1.18c.07,1.06.16,2.59.27,4.54.21,4,.52,9.67.89,16.7.18,3.53.37,7.39.59,11.54s.22,8.59.34,13.26c.2,9.33.32,19.6.34,30.38,0,21.55-.26,41.06-.45,55.18-.11,7-.2,12.75-.27,16.73,0,1.95-.07,3.48-.09,4.54,0,.5,0,.9,0,1.19A2.12,2.12,0,0,1,536.58,458.24Z" style="fill:#263238"></path><path d="M487.71,247.63a2.49,2.49,0,0,1,.34.44l.91,1.34c.8,1.21,1.93,2.92,3.35,5.05l11.53,17.66-.14-.11,8.64,2.16.31.08-.14.29c-1,1.89-2,3.87-3,5.88-.15.31-.31.62-.46.9l0-.27L528,305.63c2.37,3.12,4.3,5.66,5.67,7.45l1.52,2,.38.54c.09.12.13.19.12.2a.84.84,0,0,1-.16-.17l-.43-.5-1.59-2-5.8-7.36-19.07-24.49-.1-.13.08-.14c.14-.29.3-.6.46-.91l3-5.88.16.37-8.63-2.18-.1,0-.05-.08-11.38-17.76-3.23-5.13-.84-1.37A3.75,3.75,0,0,1,487.71,247.63Z" style="fill:#263238"></path><path d="M535.64,315.86a3.19,3.19,0,0,1,.22-.67c.15-.43.43-1,.71-1.87.59-1.63,1.35-4,2.17-7,1.63-6,3.49-14.48,5.12-24l0,.17-.76-1.23-4.08-6.66-.32-.52.59.14,4.85,1.17-.29.31c-2.15-6.42-4-11.92-5.32-15.87l-1.48-4.58L536.7,254a.22.22,0,1,1,.08,0c.12.32.26.71.45,1.2.39,1.11.94,2.63,1.61,4.53,1.37,3.94,3.28,9.42,5.5,15.82l.15.41-.43-.1-4.85-1.14.27-.38c1.32,2.13,2.69,4.36,4.1,6.65l.76,1.23,0,.09,0,.09a237.94,237.94,0,0,1-5.28,24c-.87,3-1.69,5.39-2.34,7-.3.82-.61,1.42-.79,1.84A6.1,6.1,0,0,1,535.64,315.86Z" style="fill:#263238"></path><path d="M563.91,396.18s-7.45.5-9.81,1.58-4,4.73-5.88,6.24-4.67,2.26-4,4.14a4.41,4.41,0,0,0,5.59,2.32,51.31,51.31,0,0,0,5.17-2.32h11.83s2.37-9.36,2.59-9.22S566.05,396.17,563.91,396.18Z" style="fill:#ffbe9d"></path><path d="M558.27,295.82c.14,0,.26,22.58.26,50.43s-.12,50.44-.26,50.44-.26-22.58-.26-50.44S558.12,295.82,558.27,295.82Z" style="fill:#263238"></path><path d="M448.89,399.33s.17.16.46.5l1.32,1.52c1.15,1.37,2.83,3.34,5,5.85,4.28,5.09,10.41,12.36,17.84,21.2l-.29,0,28.95-23.88,0,.37-9.34-10.92-31.19-36.56-.08-.1,0-.12c4.21-11.88,7.7-21.76,10.15-28.69l2.87-8,.77-2.09c.18-.48.28-.72.28-.72s-.06.26-.22.74-.4,1.21-.7,2.12c-.65,1.87-1.58,4.59-2.76,8l-10,28.75,0-.22,31.25,36.51,9.33,10.92.17.2-.2.17-29,23.81-.16.13-.13-.16-17.71-21.32-4.87-5.92-1.27-1.56C449,399.52,448.89,399.33,448.89,399.33Z" style="fill:#263238"></path><path d="M457.46,264.83a1.24,1.24,0,0,1,.42,0c.28,0,.69,0,1.22,0a24.21,24.21,0,0,1,4.44.59,26.42,26.42,0,0,1,20,19.78,23.47,23.47,0,0,1,.65,4.43c0,.53,0,.94,0,1.22a1.24,1.24,0,0,1,0,.42,12.38,12.38,0,0,1-.18-1.62,29.9,29.9,0,0,0-.8-4.36,26.92,26.92,0,0,0-19.76-19.51,28.57,28.57,0,0,0-4.36-.75A11.65,11.65,0,0,1,457.46,264.83Z" style="fill:#263238"></path><path d="M446.12,360.2a7.27,7.27,0,0,1,2-1.35A17.69,17.69,0,0,1,459.33,357a6.87,6.87,0,0,1,2.3.65,22.32,22.32,0,0,0-15.51,2.56Z" style="fill:#263238"></path><polygon points="557.83 408.14 567.8 408.14 555.35 445.51 551.65 419.43 557.83 408.14" style="fill:#ebebeb"></polygon><path d="M555,408.14a4.77,4.77,0,0,1,.92-.07l2.61-.06,9.31-.09h.31l-.1.3c-1.21,3.67-2.64,8-4.16,12.61-2.28,6.84-4.37,13-5.91,17.49l-1.85,5.29-.53,1.42a2.17,2.17,0,0,1-.21.49,1.84,1.84,0,0,1,.11-.52l.44-1.46c.42-1.33,1-3.14,1.69-5.33,1.45-4.5,3.48-10.71,5.76-17.55l4.23-12.58.22.29-9.31-.09-2.61-.06A4.77,4.77,0,0,1,555,408.14Z" style="fill:#263238"></path><path d="M558.27,396.69a4.47,4.47,0,0,1,1.16-.36,14.87,14.87,0,0,1,3.32-.4,9.65,9.65,0,0,1,4.83,1.15,9.05,9.05,0,0,1,3.75,4.76c1.55,4.14.38,8.5-1.71,10.5a9,9,0,0,1-2.79,1.84,4,4,0,0,1-1.17.37,9.19,9.19,0,0,1,1.08-.55,10.21,10.21,0,0,0,2.62-1.92c1.89-1.93,3-6.11,1.48-10.05a8.57,8.57,0,0,0-3.51-4.53,9.4,9.4,0,0,0-4.59-1.2A33,33,0,0,0,558.27,396.69Z" style="fill:#263238"></path><path d="M483,425.24a19.21,19.21,0,0,0,5.54,1.16,23.23,23.23,0,0,0,6.11-.57,55.61,55.61,0,0,0,7.23-2.24c5.06-1.88,9.65-3.56,13-4.74l3.95-1.39a9.67,9.67,0,0,1,1.48-.44,7.88,7.88,0,0,1-1.41.63L515,419.19c-3.3,1.28-7.87,3-12.93,4.89a52.12,52.12,0,0,1-7.31,2.22,22.5,22.5,0,0,1-6.23.47,14.9,14.9,0,0,1-4.12-.87,9,9,0,0,1-1.06-.45C483.07,425.33,483,425.26,483,425.24Z" style="fill:#263238"></path><path d="M485.11,457.86c-.14,0-.86-6.16-1.6-13.79s-1.23-13.83-1.09-13.84.86,6.16,1.61,13.79S485.26,457.84,485.11,457.86Z" style="fill:#263238"></path><path d="M511.79,456.61c0-.05.53-.21,1.45-.61a12.5,12.5,0,0,0,3.51-2.28,16.18,16.18,0,0,0,3.59-5.07,29.29,29.29,0,0,0,2.22-7.33,65.43,65.43,0,0,0,.76-14c-.08-1.8-.18-3.25-.25-4.25a9.73,9.73,0,0,1-.07-1.57,8.47,8.47,0,0,1,.27,1.54c.14,1,.29,2.46.42,4.26a60,60,0,0,1-.61,14.09,29.21,29.21,0,0,1-2.31,7.44A16.16,16.16,0,0,1,517,454a11.54,11.54,0,0,1-3.69,2.2,8.25,8.25,0,0,1-1.11.34A1.49,1.49,0,0,1,511.79,456.61Z" style="fill:#263238"></path><path d="M483.06,427.58c.07-.06.87,1,2.34,2.43a33.66,33.66,0,0,0,13.71,8.36c2,.63,3.25.88,3.24,1a3.43,3.43,0,0,1-.91-.09,19.5,19.5,0,0,1-2.43-.53,29.37,29.37,0,0,1-7.53-3.26,29.78,29.78,0,0,1-6.35-5.2,21.73,21.73,0,0,1-1.58-1.91A3.29,3.29,0,0,1,483.06,427.58Z" style="fill:#263238"></path><path d="M518.17,316.42a3.18,3.18,0,0,1,1.16,2.52c-.1,1.55,0,12.11,0,12.11s.39,1.55-1.16,1.55V316.42Z" style="fill:#263238"></path><rect x="515.24" y="314.7" width="3.24" height="5.3" style="fill:#263238"></rect><path d="M515.89,315.31h2v-2a1,1,0,0,0-1-1h0a1,1,0,0,0-1,1Z" style="fill:#263238"></path><path d="M490.8,319.68c0-.15,7.27-.26,16.23-.26s16.24.11,16.24.26-7.27.26-16.24.26S490.8,319.82,490.8,319.68Z" style="fill:#263238"></path><g style="opacity:0.2"><polyline points="532.87 312.27 531.37 310.85 504.05 284.73 507.04 276.17 502.3 276.17 492.8 255.49 503.64 272.25 512.28 274.42 508.8 281.2"></polyline></g><g style="opacity:0.2"><path d="M510.09,347.47a15.5,15.5,0,0,0,7.64-2.34,13.19,13.19,0,0,0,4.33-6.42,34.21,34.21,0,0,1-1.27,6.85,9.9,9.9,0,0,1-3.83,5.12c-2.12,1.32-4.77,1.46-7.26,1.26a30.41,30.41,0,0,1-9.7-2.43c-2.19-.95-4.48-2.45-4.93-4.79A30.24,30.24,0,0,0,510.09,347.47Z"></path></g></g><g id="freepik--character-2--inject-133"><path d="M243.27,191.22s-6.42,24-7,41l-.18,5.66s14.15,11.75,26,12.47l10-24.47Z" style="fill:#263238"></path><path d="M306.15,205.94c-2.71-11.7-3.75-25.32-13.48-32.95-7.22-5.66-15.44-7.24-24.61-6.85-4.51.19-9.61,2.27-13.54,4.49-5.39,3.05-7.67,9.24-10.27,14.86-5.21,11.26-4.55,26.51-1,30.75l47,24.85c9.4-4.89,15.29-6.83,16.79-19.36A46.09,46.09,0,0,0,306.15,205.94Z" style="fill:#263238"></path><path d="M291.65,182.29,262,173.55c-9.54-1.39-16.38,10.16-17.36,19.75-1.1,10.65-2,23.7-1.06,31.72,1.92,16.13,14.12,18.65,14.12,18.65s0,.24-.07,5l-.31,7.72a13.33,13.33,0,0,0,2.61,8.73c4.36,5.66,12.33,6.42,21.71,2.95,5.44-2,9.23-6.07,9.64-11.58l5.15-68.3A5.64,5.64,0,0,0,291.65,182.29Z" style="fill:#9f6b5b"></path><path d="M250.15,207.93a2.06,2.06,0,0,0,1.9,2.15,2,2,0,0,0,2.2-1.77,2,2,0,0,0-1.9-2.15A2,2,0,0,0,250.15,207.93Z" style="fill:#263238"></path><path d="M247.16,203c.24.28,1.84-.81,4.05-.72s3.79,1.26,4,1-.11-.61-.8-1.15a5.59,5.59,0,0,0-3.22-1.13,5.39,5.39,0,0,0-3.24.9C247.28,202.36,247,202.84,247.16,203Z" style="fill:#263238"></path><path d="M270.77,207.73a2.05,2.05,0,0,0,1.9,2.15,2,2,0,0,0,2.19-1.77A2,2,0,0,0,273,206,2,2,0,0,0,270.77,207.73Z" style="fill:#263238"></path><path d="M268.91,203.22c.25.28,1.85-.81,4.06-.72s3.79,1.26,4,1-.12-.61-.8-1.15a5.69,5.69,0,0,0-3.22-1.13,5.37,5.37,0,0,0-3.25.91C269,202.62,268.79,203.1,268.91,203.22Z" style="fill:#263238"></path><path d="M260.3,217.56a14.89,14.89,0,0,0-3.57-.79c-.56-.08-1.09-.21-1.17-.6a2.84,2.84,0,0,1,.44-1.66l1.84-4.24c2.56-6,4.44-11,4.19-11.1s-2.51,4.71-5.07,10.74l-1.77,4.26a3.26,3.26,0,0,0-.38,2.21,1.38,1.38,0,0,0,.89.86,3.74,3.74,0,0,0,1,.17A14.14,14.14,0,0,0,260.3,217.56Z" style="fill:#263238"></path><path d="M257.74,243.67a40.81,40.81,0,0,0,21.69-4.88s-5.75,11-21.73,8.88Z" style="fill:#774f44"></path><path d="M267.44,222a3.56,3.56,0,0,0-2.89-1.73,4.62,4.62,0,0,0-4.29,1.92,2.86,2.86,0,0,0-.27,2.07c.14.36,0,.18.29.43a8.16,8.16,0,0,0,3.22,2.18,3.5,3.5,0,0,0,3.72-1.2A3.55,3.55,0,0,0,267.44,222Z" style="fill:#774f44"></path><path d="M267.14,219.44c-.36,0-.47,2.37-2.6,4s-4.67,1.23-4.71,1.56c0,.15.55.49,1.63.57a5.9,5.9,0,0,0,3.92-1.17,5.24,5.24,0,0,0,2-3.34C267.55,220,267.31,219.44,267.14,219.44Z" style="fill:#263238"></path><path d="M268.08,195.12c.15.62,2.38.56,4.94,1.12s4.57,1.47,5,1c.18-.24-.13-.84-.92-1.5a8.81,8.81,0,0,0-7.55-1.58C268.53,194.41,268,194.83,268.08,195.12Z" style="fill:#263238"></path><path d="M247.34,197c.5.43,2.11-.33,4.14-.65s3.79-.2,4.11-.78c.14-.28-.21-.74-1-1.1a6.64,6.64,0,0,0-6.64,1.15C247.28,196.24,247.11,196.79,247.34,197Z" style="fill:#263238"></path><path d="M262.45,171.82c0,.12-.05.24-.07.35l.05,0C262.44,172.07,262.44,172,262.45,171.82Z" style="fill:#263238"></path><path d="M283.16,250.14c.45-4.2-1.24-8.42-.75-12.62.52-4.45,3.4-8.26,4.59-12.59,1.89-6.92-.71-14.28-1.66-21.43a17,17,0,0,1-10.42-6c-3.22-3.75-5.16-8.39-7.06-12.95A21.77,21.77,0,0,0,272.22,197a5.82,5.82,0,0,1-5-1.63,13,13,0,0,1-2.93-4.55A35.61,35.61,0,0,1,261.46,178a46.23,46.23,0,0,0,2.09,18.72,8,8,0,0,0-3.48.13,3.82,3.82,0,0,1-3.32-.7,4.17,4.17,0,0,1-.91-2.14,48.3,48.3,0,0,1-.53-16.31,49.09,49.09,0,0,0-3.67,9,17.46,17.46,0,0,0-.07,9.64,1.41,1.41,0,0,1-2,0,3.37,3.37,0,0,1-.88-2,25,25,0,0,1,.53-8.12c-1.6,2.84-2.13,6.14-3,9.27s-2.3,6.36-5,8.15a42.31,42.31,0,0,1,.4-12.3c.54-3.36,2.13-6.69,3.6-9.76a29,29,0,0,1,6.5-9.05c4.72-4.13,6.7-2.35,9.71-.78l.36.15a1.66,1.66,0,0,1,0-.22l.13-.64a45.28,45.28,0,0,1,23.83,1.11c5.68,1.86,12.68,7.7,15.57,12.93.05.1.11.2.17.3,6.7,12.1,11.12,26.12,11.45,56.44h0Z" style="fill:#263238"></path><path d="M295.78,288.2a4.59,4.59,0,0,1,0-1.2,20.57,20.57,0,0,1,.59-3.25,22.75,22.75,0,0,1,14.13-15.56,20.09,20.09,0,0,1,3.17-.9,5.1,5.1,0,0,1,1.2-.15c0,.1-1.68.36-4.23,1.39a23.66,23.66,0,0,0-13.91,15.32C296,286.49,295.88,288.22,295.78,288.2Z" style="fill:#263238"></path><path d="M225.52,376s-1.85,31.14,6.34,43.32l6.06-20.52V376.21Z" style="fill:#e0e0e0"></path><path d="M288.7,251.18s-17.24,13-25.64,11.56c-6.73-1.18-5.57-11.41-5.57-11.41l-3.27,7.07-7.05,28.22,3,13.29,16-9.89Z" style="fill:#B455C3"></path><path d="M229.83,307.56c1.81-18.63,24.21-50.89,24.21-50.89l3.54-5.72-3.53,15.82s-3.51,23.09-4,23.57l19.75-19.13L292,247.7l4.39,6.3,19.49,10.8-2,61.18-7,17.93s20.58,56.34,23.25,76.31l4.45,37.87-105.07-.17s3.69-59.23,4.1-71.88S235,345.41,235,345.41,228,326.18,229.83,307.56Z" style="fill:#e0e0e0"></path><path d="M334.6,458.09a1.48,1.48,0,0,1-.06-.34c0-.26-.09-.59-.15-1l-.51-3.9c-.42-3.42-1-8.31-1.77-14.35-.37-3-.77-6.35-1.2-9.91q-.32-2.67-.66-5.52c-.22-1.9-.44-3.85-.81-5.82a257.94,257.94,0,0,0-6.66-25.35c-1.48-4.84-2.94-9.55-4.47-14s-3-8.78-4.4-12.84c-2.77-8.13-5.21-15.29-7.17-21.06l0-.06,0-.06,4.62-11.53,1.26-3.08.33-.79a1.63,1.63,0,0,1,.13-.26,1.2,1.2,0,0,1-.08.28c-.08.21-.17.47-.29.81l-1.18,3.11L307.06,344v-.12c2,5.75,4.48,12.91,7.3,21,1.4,4.06,2.88,8.36,4.43,12.84s3,9.2,4.49,14a252.2,252.2,0,0,1,6.64,25.41c.36,2,.57,4,.79,5.86s.43,3.74.63,5.52l1.14,9.92c.67,6,1.22,10.94,1.6,14.36.18,1.68.32,3,.41,3.91l.1,1A1.33,1.33,0,0,1,334.6,458.09Z" style="fill:#263238"></path><g style="opacity:0.2"><path d="M318.44,377.42s-14.2,18.34-17.56,17.76-6.69-7-6.69-7l-3.71-1.72-3.62-6.6,7.82-7Z"></path></g><path d="M250.8,261.38s-8.31,3.53-11,7.78-4.51,22.68-4.51,22.68l13.19-22.22Z" style="fill:#e0e0e0"></path><path d="M263,378.46,276,373.62l9.94-6.7,8.47,13.56-3.84,2.3s-.1,3.28-.12,3.68-1.3,3.64-11.82,3.43-13-5.55-13-5.55-5.47,6.27-7.74,7.25-4.41-2-4.41-2Z" style="fill:#9f6b5b"></path><path d="M234.76,351.21s-5,5.22-6.18,9.3-.5,15.57-.5,15.57l1.43.05s0,7.52,2.08,7.77,4.11.31,4.22-3.09a60.37,60.37,0,0,0-.95-9.35Z" style="fill:#9f6b5b"></path><path d="M244.82,458.09a2.43,2.43,0,0,1,0-.43l0-1.28c0-1.15-.07-2.8-.12-4.92-.09-4.29-.22-10.46-.37-18.08-.26-15.28-.62-36.36-1-59.64-.76-23.29-.89-44.42.39-59.66a71.06,71.06,0,0,1,3.71-17.68c.36-1,.72-1.89,1-2.64s.6-1.4.86-1.9.44-.86.58-1.14a3.05,3.05,0,0,1,.21-.38,2.94,2.94,0,0,1-.17.41c-.12.28-.3.66-.52,1.16s-.52,1.14-.82,1.91-.66,1.64-1,2.65A72.29,72.29,0,0,0,244,314.11c-1.18,15.21-1,36.34-.24,59.62.33,23.28.64,44.36.86,59.65.08,7.61.15,13.78.2,18.08,0,2.11,0,3.77,0,4.92,0,.54,0,1,0,1.27A2.12,2.12,0,0,1,244.82,458.09Z" style="fill:#263238"></path><path d="M281.52,435.78a2.14,2.14,0,0,1-.51-.18,11.53,11.53,0,0,1-1.43-.63,21.51,21.51,0,0,1-4.74-3.22,28,28,0,0,1-5.43-6.55,35.19,35.19,0,0,1-4-9.62,61.61,61.61,0,0,1-1.18-18.81c.17-2.41.38-4.35.54-5.69.08-.63.14-1.14.19-1.55a2.34,2.34,0,0,1,.11-.53,1.87,1.87,0,0,1,0,.54c0,.42-.06.93-.1,1.55-.1,1.35-.25,3.3-.37,5.7a65,65,0,0,0,1.32,18.67,35.75,35.75,0,0,0,3.88,9.5,28.77,28.77,0,0,0,5.26,6.52A28.28,28.28,0,0,0,281.52,435.78Z" style="fill:#263238"></path><path d="M250.8,261.38a4.35,4.35,0,0,1,0,.68c0,.48-.08,1.13-.14,1.95-.15,1.75-.35,4.23-.61,7.33v.08l-.07,0-2.24,1.29.09-.16c.37,5.14.85,11.67,1.4,19.08l-.32-.21,17.74-6.41,5.66-2-.16.28c-.28-2-.56-3.85-.83-5.72l-.06-.41.39.14,6.76,2.4-.28.09,13.1-18.62,3.78-5.3,1-1.41a3,3,0,0,1,.37-.46,3.53,3.53,0,0,1-.31.51c-.23.36-.55.83-.95,1.44l-3.68,5.38L278.5,280.06l-.11.15-.17-.06-6.76-2.37.33-.28c.27,1.86.55,3.77.84,5.71l0,.21-.2.07-5.67,2.05L249,291.92l-.3.11,0-.32c-.49-7.42-.93-14-1.27-19.1v-.11l.09-.05,2.26-1.26-.08.13c.32-3.11.57-5.58.75-7.32.1-.82.17-1.47.22-1.95A5.34,5.34,0,0,1,250.8,261.38Z" style="fill:#263238"></path><path d="M234.86,371.46a2.1,2.1,0,0,1,0-.46c0-.35,0-.8,0-1.37,0-1.24-.05-3-.08-5.2,0-4.52-.11-10.92-.18-18.61v.06c-1.18-4.1-2.23-8.65-3.24-13.53-.5-2.43-1-5-1.44-7.53a52.21,52.21,0,0,1-.91-8,53.73,53.73,0,0,1,3.62-21.07v0a97,97,0,0,1,5.55-12.52c1.88-3.65,3.66-6.79,5.16-9.37s2.75-4.6,3.62-6l1-1.55a3.49,3.49,0,0,1,.37-.52,5.7,5.7,0,0,1-.31.56L247,268c-.83,1.39-2,3.43-3.49,6s-3.21,5.76-5.06,9.42A99.74,99.74,0,0,0,233,295.91h0v0a53.76,53.76,0,0,0-3.54,20.86,51.58,51.58,0,0,0,.9,7.94q.69,3.87,1.42,7.52c1,4.87,2,9.42,3.17,13.5v.06c0,7.7,0,14.1,0,18.62,0,2.21,0,4,0,5.2,0,.57,0,1,0,1.37A2.77,2.77,0,0,1,234.86,371.46Z" style="fill:#263238"></path><g style="opacity:0.2"><path d="M313.08,330.78c-10.87-7.77-17.38-21.32-17.56-34.68Z"></path></g><path d="M308.2,261.31s9.28,1.81,12.94,9.76,27.91,68.11,28.38,72.34S348,353,343,358.26,300.39,390,300.39,390l-16.32-26.14L317.3,340l-21.66-44.7S297.24,264.57,308.2,261.31Z" style="fill:#e0e0e0"></path><path d="M331.15,345.92a55.83,55.83,0,0,0-6.17-3.73,58.55,58.55,0,0,0-6.79-2.44,6.88,6.88,0,0,1,2.12.27,23.15,23.15,0,0,1,4.89,1.7,22.9,22.9,0,0,1,4.4,2.72A6.42,6.42,0,0,1,331.15,345.92Z" style="fill:#263238"></path><path d="M329.92,336.43a51.24,51.24,0,0,0-6,.94,48.08,48.08,0,0,0-5.67,2.16,16.45,16.45,0,0,1,11.68-3.1Z" style="fill:#263238"></path><path d="M343,358.26a2.31,2.31,0,0,1,.22-.26l.66-.75A15.69,15.69,0,0,0,345,356a18,18,0,0,0,1.31-1.8,18.6,18.6,0,0,0,2.56-5.47,14.65,14.65,0,0,0,.55-3.73,9.53,9.53,0,0,0-.73-4.11c-4.35-11.22-10.34-26.66-17-43.71-2.58-6.24-5.07-12.26-7.42-17.92-1.16-2.83-2.3-5.57-3.38-8.2a17.07,17.07,0,0,0-5.14-6.1l0,0-18.72-10.48h0l0,0-3.76-5-1-1.3a2.94,2.94,0,0,1-.3-.46s.13.14.36.42l1,1.26,3.86,4.94,0,0L316,264.61h0a17.54,17.54,0,0,1,5.31,6.26c1.09,2.63,2.23,5.37,3.41,8.19L332.16,297c6.65,17.07,12.54,32.57,16.82,43.78a9.71,9.71,0,0,1,.72,4.25,14.6,14.6,0,0,1-.6,3.8,18.37,18.37,0,0,1-2.67,5.51,18.74,18.74,0,0,1-1.36,1.77,12.09,12.09,0,0,1-1.1,1.22l-.71.71C343.1,358.19,343,358.27,343,358.26Z" style="fill:#263238"></path><path d="M319.32,376.49a2.77,2.77,0,0,1-.32.26l-1,.73-3.75,2.74-13.78,10-.16.12-.11-.18L283.86,364l-.13-.2.19-.13,15-10.79,18.27-13.14-.08.31-15.89-32.23-4.55-9.33-1.2-2.49c-.12-.27-.22-.49-.3-.65l-.09-.23a1.12,1.12,0,0,1,.13.21l.34.63,1.26,2.46c1.11,2.18,2.69,5.32,4.68,9.26l16.07,32.15.09.19-.17.12-18.25,13.16-15,10.77.06-.33,16.28,26.17-.28-.05,13.88-9.82,3.81-2.66,1-.68A2.1,2.1,0,0,1,319.32,376.49Z" style="fill:#263238"></path><path d="M295.78,288.2a4.59,4.59,0,0,1,0-1.2,20.57,20.57,0,0,1,.59-3.25,22.75,22.75,0,0,1,14.13-15.56,20.09,20.09,0,0,1,3.17-.9,5.1,5.1,0,0,1,1.2-.15c0,.1-1.68.36-4.23,1.39a23.66,23.66,0,0,0-13.91,15.32C296,286.49,295.88,288.22,295.78,288.2Z" style="fill:#263238"></path><path d="M319.32,376.49a2.77,2.77,0,0,1-.32.26l-1,.73-3.75,2.74-13.78,10-.16.12-.11-.18L283.86,364l-.13-.2.19-.13,15-10.79,18.27-13.14-.08.31-15.89-32.23-4.55-9.33-1.2-2.49c-.12-.27-.22-.49-.3-.65l-.09-.23a1.12,1.12,0,0,1,.13.21l.34.63,1.26,2.46c1.11,2.18,2.69,5.32,4.68,9.26l16.07,32.15.09.19-.17.12-18.25,13.16-15,10.77.06-.33,16.28,26.17-.28-.05,13.88-9.82,3.81-2.66,1-.68A2.1,2.1,0,0,1,319.32,376.49Z" style="fill:#263238"></path><g style="opacity:0.2"><polygon points="278.3 279.92 272.76 279.74 273.92 285.35 248.96 291.69 272.37 283.25 271.54 277.54 278.3 279.92"></polygon></g><path d="M229.53,457.92a4.08,4.08,0,0,1,0-.77c0-.55.06-1.28.09-2.21.1-2,.24-4.75.42-8.18.4-7,.95-16.62,1.57-27.48l.06.18a18.39,18.39,0,0,1-2.31-4.29,55.24,55.24,0,0,1-2.92-12.34c-.53-4-.81-7.73-1-11.15-.32-6.83-.2-12.32,0-15.7v-.11h.11l3,.16.76.06.26,0-.26,0h-.76l-3-.06.11-.1c-.07,3.37-.11,8.86.26,15.67.19,3.41.49,7.15,1,11.1A55.38,55.38,0,0,0,229.84,415a17.77,17.77,0,0,0,2.23,4.16l.06.08v.1c-.69,10.85-1.3,20.48-1.74,27.46-.25,3.43-.44,6.2-.58,8.17-.07.93-.13,1.66-.18,2.21A5.12,5.12,0,0,1,229.53,457.92Z" style="fill:#263238"></path><path d="M291.58,276.52l-1.35-.57c0-.07,3-7.32,6-15,1.18-3.05,1.6-5.59,1.26-7.56a3.5,3.5,0,0,0-3.55-2.85l-.92-1.32a5.27,5.27,0,0,1,5.92,3.92c.38,2.23-.07,5-1.34,8.34C294.64,269.18,291.61,276.44,291.58,276.52Z" style="fill:#455a64"></path><path d="M293.77,293.46l-1.87-.72c1.53-3.94,3.62-10.92,2.72-12.88a5.75,5.75,0,0,0-4-2.65,6.72,6.72,0,0,0-5.85,1.2c-2.14,1.81-5.36,8.19-6.42,10.49l-1.82-.84c.16-.35,4-8.72,7-11.18a8.71,8.71,0,0,1,7.58-1.62,7.64,7.64,0,0,1,5.39,3.77C298,282.33,294.48,291.63,293.77,293.46Z" style="fill:#455a64"></path><path d="M273.62,323.89c-2.31,0-4.57-1.23-6.74-3.68l.74-.67c2.4,2.7,4.86,3.77,7.31,3.2,10-2.35,17.57-30.07,17.65-30.35l1,.26c-.31,1.17-7.83,28.58-18.38,31.06A6.75,6.75,0,0,1,273.62,323.89Z" style="fill:#263238"></path><path d="M268.8,321.35h0a1.2,1.2,0,0,1-1.56.11l-2.17-1.61a1.43,1.43,0,0,1-.4-2h0a1.43,1.43,0,0,1,2.21-.22l1.94,2A1.2,1.2,0,0,1,268.8,321.35Z" style="fill:#263238"></path><path d="M277.86,324.8c-3.08,0-5.37-1-6.81-3-6.13-8.6,5.43-32.48,5.93-33.5l.9.44c-.12.24-11.8,24.36-6,32.48,1.51,2.11,4.16,3,7.88,2.49l.13,1A16.09,16.09,0,0,1,277.86,324.8Z" style="fill:#263238"></path><path d="M277.68,324.26h0a1.2,1.2,0,0,0,1.09,1.11l2.69.22a1.43,1.43,0,0,0,1.62-1.23h0a1.43,1.43,0,0,0-1.51-1.62l-2.8.24A1.19,1.19,0,0,0,277.68,324.26Z" style="fill:#263238"></path><circle cx="229.57" cy="300.82" r="7.83" transform="translate(-98.02 111.4) rotate(-22.61)" style="fill:#263238"></circle><circle cx="229.57" cy="300.82" r="7.83" transform="translate(-98.02 111.4) rotate(-22.61)" style="fill:#263238"></circle><path d="M235.36,300.82a5.79,5.79,0,1,1-5.79-5.79A5.78,5.78,0,0,1,235.36,300.82Z" style="fill:#e0e0e0"></path><path d="M232.79,293.76l-1.3-.67c.66-1.28,16.14-31.39,17.07-32.75.16-.24.36-.58.58-.95a21.41,21.41,0,0,1,1.55-2.33c1.56-1.93,3.42-3.71,5.65-4.11l-1.3,2.1c-1.19.46-1.82,1.21-3.21,2.93a20.33,20.33,0,0,0-1.43,2.17c-.24.4-.45.75-.63,1C249,262.23,237.27,285.05,232.79,293.76Z" style="fill:#455a64"></path></g><g id="freepik--character-3--inject-133"><path d="M402.79,198.54l.75,60.06c.13,10.21-1.77,25.24-17.93,24.71h0c-14-1.52-17.7-14.76-17.8-24.29-.06-4.53-.11-8.3-.14-8.76,0,0-15.31-1.25-16.6-16.37-.63-7.31-.69-22.46-.59-36.17a28.27,28.27,0,0,1,26.22-28l1.46-.11C394,169.42,403,182.72,402.79,198.54Z" style="fill:#ffbe9d"></path><path d="M367.67,250.26A36.66,36.66,0,0,0,386.94,243s-4,11.4-19.2,11.14Z" style="fill:#eb996e"></path><path d="M376.33,203.92c.3.3,2.05-1.1,4.58-1.17s4.43,1.17,4.7.85c.13-.15-.19-.71-1-1.29a6.45,6.45,0,0,0-3.77-1.07,6.12,6.12,0,0,0-3.63,1.33C376.44,203.2,376.19,203.78,376.33,203.92Z" style="fill:#263238"></path><path d="M378.92,209.12A2,2,0,0,0,381,211a2,2,0,0,0,2-2,2,2,0,0,0-2.12-1.92A2,2,0,0,0,378.92,209.12Z" style="fill:#263238"></path><path d="M370,221.54c0-.14-1.46-.28-3.83-.41-.6,0-1.17-.09-1.3-.49a3,3,0,0,1,.27-1.79q.67-2.22,1.43-4.65c2-6.62,3.34-12,3.08-12.12s-2.08,5.23-4.05,11.84l-1.35,4.68a3.4,3.4,0,0,0-.14,2.35,1.51,1.51,0,0,0,1,.8,4.11,4.11,0,0,0,1,.06A15.17,15.17,0,0,0,370,221.54Z" style="fill:#263238"></path><path d="M377.41,194.39c.25.56,2.27.14,4.7.27s4.43.66,4.71.12c.12-.26-.25-.78-1.08-1.28a7.67,7.67,0,0,0-3.55-1,7.5,7.5,0,0,0-3.62.71C377.72,193.64,377.31,194.12,377.41,194.39Z" style="fill:#263238"></path><path d="M353.35,199.09c.27.45,2.25-.05,4.64-.13s4.39.23,4.64-.24c.11-.23-.29-.64-1.12-1a8.38,8.38,0,0,0-3.54-.58,8.68,8.68,0,0,0-3.53.87C353.62,198.43,353.24,198.87,353.35,199.09Z" style="fill:#263238"></path><path d="M402.38,209.83c.25-.13,10.17-3.83,10.59,6.54s-10.07,8.66-10.1,8.36S402.38,209.83,402.38,209.83Z" style="fill:#ffbe9d"></path><path d="M405.88,220.67s.18.12.49.25a1.88,1.88,0,0,0,1.36,0c1.07-.45,1.93-2.22,1.9-4.1a6,6,0,0,0-.61-2.56,2.07,2.07,0,0,0-1.42-1.33.9.9,0,0,0-1,.54c-.13.29-.06.5-.11.52s-.23-.17-.16-.6a1.11,1.11,0,0,1,.38-.67,1.35,1.35,0,0,1,1-.3,2.54,2.54,0,0,1,1.95,1.53,6.13,6.13,0,0,1,.74,2.86c0,2.1-1,4.1-2.45,4.59a1.9,1.9,0,0,1-1.66-.21C405.91,220.92,405.84,220.69,405.88,220.67Z" style="fill:#eb996e"></path><path d="M372.44,228.72c-.12-.26,1.91-.87,3.34-2.78a11.47,11.47,0,0,0,1.44-2.71c.3-.75.53-1.22.64-1.19s.08.55-.09,1.36a7.61,7.61,0,0,1-1.33,3,6.26,6.26,0,0,1-2.65,2C373,228.79,372.46,228.81,372.44,228.72Z" style="fill:#263238"></path><path d="M416.17,193c-2.17-3.65-2.67-8-3.85-12.1s-3.45-8.31-7.46-9.74l-.09,0c-3.59-1.44-8-1.46-11,1-.73-5.39-5.46-9.65-10.72-11s-13.7-.55-18.74,1.48c-3.9,1.57-7.67,4.79-12.26,9.51a50.74,50.74,0,0,0-5.29,6.41l-4.57,14.13,3.92,7.41a14.19,14.19,0,0,0,.77,1.5v0l3.53,15.61c.23-4.26-.08-19.06.14-23.32a23.74,23.74,0,0,0,16.92-7.82c2.33-2.57,4.15-5.8,7.26-7.34,4-2,8.79-.54,13,.93l-.18-.16a18.85,18.85,0,0,1,5.86,4.23,59,59,0,0,0,2.55,25c.4,1.21,1.48,3.7,2.67,4.16,2.32.9,2.95-1.47,4.35-2.73,1-.93,2.57-1,4.24-1a92.7,92.7,0,0,0,2.85-10.76,9.42,9.42,0,0,0,4.35.29l-1.34-3.2a5,5,0,0,0,1.86.84,1.69,1.69,0,0,0,1.77-.77C417.15,194.72,416.62,193.81,416.17,193Z" style="fill:#263238"></path><path d="M389,174a13.58,13.58,0,0,1,1.52,1.39,10.82,10.82,0,0,1,2.32,5,19,19,0,0,1,.39,3.84c0,1.4-.11,2.89-.22,4.46a40.33,40.33,0,0,0-.11,5,17.1,17.1,0,0,0,.34,2.62,5.43,5.43,0,0,0,1.07,2.53,2.27,2.27,0,0,0,2.13.72,3.39,3.39,0,0,0,1.92-1.08,7.79,7.79,0,0,0,1.46-3.85l-.32,0a12.71,12.71,0,0,0,1.84,3.17,4.55,4.55,0,0,0,2.95,1.6,3,3,0,0,0,1.56-.27,2.61,2.61,0,0,0,1.06-1,2.68,2.68,0,0,0,.32-1.34,1.86,1.86,0,0,0-.49-1.17l-.16.14a9.86,9.86,0,0,0,3.25,2.44c.43.19.77.31,1,.39a1.48,1.48,0,0,0,.36.09l-.34-.15c-.23-.09-.56-.23-1-.44a10,10,0,0,1-3.14-2.47l-.16.14a1.94,1.94,0,0,1,.1,2.25,2.28,2.28,0,0,1-1,.92,2.61,2.61,0,0,1-1.42.23,4.24,4.24,0,0,1-2.73-1.52,12.6,12.6,0,0,1-1.77-3.1l-.22-.49-.1.53a7.5,7.5,0,0,1-1.39,3.67,3,3,0,0,1-1.72,1,1.93,1.93,0,0,1-1.81-.6,5.26,5.26,0,0,1-1-2.38,17.25,17.25,0,0,1-.33-2.56,39.91,39.91,0,0,1,.09-4.92c.1-1.57.2-3.07.18-4.48a18.57,18.57,0,0,0-.44-3.89,10.78,10.78,0,0,0-2.46-5.07A6.17,6.17,0,0,0,389,174Z" style="fill:#455a64"></path><path d="M342.25,188.73l.12.1.38.28a5.59,5.59,0,0,0,.64.41,7.74,7.74,0,0,0,.92.48,13.33,13.33,0,0,0,6.47,1.16,17,17,0,0,0,9.13-3.37,29.58,29.58,0,0,0,7.84-9c1.1-1.84,2-3.71,3-5.45a20,20,0,0,1,3.38-4.6,10.22,10.22,0,0,1,4.36-2.65,7.3,7.3,0,0,1,2.3-.26,8.32,8.32,0,0,1,2.1.4,8.74,8.74,0,0,1,3.15,1.9,8.93,8.93,0,0,1,1.71,2.21,10.07,10.07,0,0,1,.78,2.27s0-.05,0-.16,0-.27-.07-.46a7.93,7.93,0,0,0-.58-1.71,8.36,8.36,0,0,0-1.69-2.29,8.75,8.75,0,0,0-3.21-2,8,8,0,0,0-2.17-.44,7.58,7.58,0,0,0-2.39.25,10.64,10.64,0,0,0-4.51,2.69,20.27,20.27,0,0,0-3.45,4.67c-1,1.75-1.9,3.62-3,5.43a29.54,29.54,0,0,1-7.73,9,17,17,0,0,1-9,3.39,13.53,13.53,0,0,1-6.4-1C343,189.24,342.28,188.68,342.25,188.73Z" style="fill:#455a64"></path><path d="M353.24,204.87c.3.31,2.05-1.1,4.58-1.17s4.42,1.18,4.69.85c.13-.14-.18-.7-1-1.28a6.34,6.34,0,0,0-3.76-1.07,6.18,6.18,0,0,0-3.64,1.32C353.34,204.16,353.09,204.73,353.24,204.87Z" style="fill:#263238"></path><path d="M356.72,209.12a2,2,0,0,0,2.12,1.92,2,2,0,0,0,2-2,2,2,0,0,0-2.12-1.92A2,2,0,0,0,356.72,209.12Z" style="fill:#263238"></path><path d="M348.06,176.89c-1.27,1.72-3.23,3.29-5.35,3.09a15.84,15.84,0,0,1-2.26-.63c-.74.45-.53,3,0,3.68a13.65,13.65,0,0,0,1.61,1.62c-2.47,1.37-4.75.74-7.41-.19a13,13,0,0,0,7.85,10.32,4.57,4.57,0,0,0,4.18,0,5.27,5.27,0,0,0,1.79-3.28,56.87,56.87,0,0,0,1.69-13.93Z" style="fill:#263238"></path><path d="M360.54,261.91l7-3.73s7.41,11,18.41,9.91,18-10.82,18-10.82l7,3.55-24,39.37Z" style="fill:#455a64"></path><path d="M439.41,376.45l-8.11-55.52,5.95-52.13-27.69-9.68-22.66,37L361,260.27,345.63,267c-13.39,5.87-25.48,18.55-28.25,32.9,0,.19-.07.38-.11.57-3.55,19.22.38,46.62.38,46.62l26.26-11.62-2.12-9.27,5,21.16s-21.45,78.18-18.4,103.81c0,0,40.49,9,77.78,2.89s47.41-7.84,47.41-7.84Z" style="fill:#B455C3"></path><path d="M437.25,268.8s16.11,14,17.89,33.45,5.07,36.83,5.07,36.83l-32.47,3.47s-.76-13.34,0-14.15,6.09-40.84,6.09-40.84Z" style="fill:#B455C3"></path><g style="opacity:0.2"><path d="M340,374.77l-1.17,5.37,19.68,7c7,2.5,14.06,5,21.4,6.27,13.45,2.31,27.24.31,40.75-1.69,7.54-1.11,16-2.8,20.16-9.2A369.1,369.1,0,0,1,340,374.77Z"></path></g><path d="M320.06,346c.25.27,9,25.65,14.08,30.18s34.5,2.94,46.93-1.6,38.83-10.05,38.83-10.05l-4-20.47s-9.66,1-22.36,3c-4.6.75-46.68.27-46.68.27l-2.91-11.89Z" style="fill:#455a64"></path><path d="M458.48,339.27c-.07,0-.8,33.44-4.35,37.72s-16,9.34-25.36,10.41-66.47-1.53-74.84-8.51l33-23,33.62,8.3,9.41-4.05.86-17.92Z" style="fill:#455a64"></path><path d="M428.34,392.27a4.31,4.31,0,0,1-.45.56l-1.36,1.55c-.59.68-1.33,1.49-2.23,2.39s-1.88,2-3.07,3-2.45,2.31-3.9,3.51-3,2.49-4.68,3.8a111.55,111.55,0,0,1-11.48,7.64,113.62,113.62,0,0,1-12.39,6.09c-2,.76-3.84,1.53-5.64,2.11-.89.3-1.75.61-2.58.87l-2.42.71c-1.53.47-2.95.79-4.18,1.09s-2.31.54-3.2.7l-2,.37a5.23,5.23,0,0,1-.71.1,3.43,3.43,0,0,1,.69-.2l2-.47c.88-.19,1.94-.44,3.17-.78s2.63-.67,4.15-1.17l2.39-.73c.83-.27,1.68-.59,2.57-.9,1.79-.59,3.64-1.37,5.6-2.15a110.13,110.13,0,0,0,23.76-13.66c1.67-1.29,3.27-2.51,4.69-3.75s2.74-2.37,3.92-3.45,2.21-2.1,3.12-3,1.68-1.66,2.29-2.32l1.43-1.48A4.11,4.11,0,0,1,428.34,392.27Z" style="fill:#263238"></path><path d="M417.54,261.91l-.13.27L417,263l-1.62,3-6.08,11L389,313.16l-.2.36-.24-.33-.78-1.07-25-34.26-7.53-10.42-2-2.84c-.21-.31-.38-.56-.52-.75a2,2,0,0,1-.16-.27,1.76,1.76,0,0,1,.21.24c.14.18.32.42.56.71l2.1,2.79,7.66,10.32,25.13,34.17.78,1.07-.44,0c8-14.15,15.19-26.91,20.42-36.16l6.21-10.89,1.71-2.94.46-.76C417.47,262,417.53,261.9,417.54,261.91Z" style="fill:#263238"></path><path d="M398.18,345a2.37,2.37,0,0,1-.05-.62c0-.47,0-1.06-.05-1.78,0-1.62-.05-3.84-.08-6.55s0-6.07-.06-9.71c0-1.83,0-3.75,0-5.73,0-1,0-2,0-3v-1.76a.6.6,0,0,1,.12-.32.68.68,0,0,1,.54-.24l.8,0c8.45-.15,16.08,0,21.61.1l6.54.15,1.78.08a2.5,2.5,0,0,1,.62.06,3.69,3.69,0,0,1-.62,0l-1.78,0H421c-5.53,0-13.18-.1-21.59.05l-.78,0c-.18,0-.12,0-.16,0a.08.08,0,0,0,0,.05v4.76c0,2,0,3.9,0,5.73,0,3.64,0,6.92-.06,9.71s-.06,4.93-.08,6.55l0,1.78A2.37,2.37,0,0,1,398.18,345Z" style="fill:#263238"></path><path d="M430.79,342.23a1.43,1.43,0,0,1,0,.31c0,.24,0,.54,0,.92,0,.84-.07,2-.11,3.5-.13,3.09-.31,7.46-.53,12.82v.13l-.13,0c-3.8,1.5-8.21,3.18-13.07,4.9s-10.22,3.31-15.84,4.84c-12.85,3.43-24.72,5.47-33.29,6.94l-10.16,1.7-2.76.44-.73.1-.24,0s.08,0,.23-.07l.72-.15,2.75-.54,10.13-1.86c8.55-1.56,20.39-3.66,33.21-7.08,5.62-1.53,11-3.09,15.82-4.8s9.27-3.35,13.09-4.81l-.13.18c.29-5.35.53-9.73.7-12.81.09-1.48.17-2.65.22-3.5,0-.37.05-.67.07-.91A1.05,1.05,0,0,1,430.79,342.23Z" style="fill:#263238"></path><path d="M416.24,345.71a82.11,82.11,0,0,1,9.56-.69,27.37,27.37,0,0,1,4.82.68l-.69,14.45L419.8,364.2Z" style="fill:#ffbe9d"></path><path d="M333.67,292.77a10,10,0,0,1,.48,1.71c.29,1.19.67,2.78,1.13,4.7,1,4.05,2.23,9.5,3.64,15.53s2.77,11.54,3.76,15.5l1.18,4.69a10.25,10.25,0,0,1,.38,1.73,11.65,11.65,0,0,1-.57-1.68c-.35-1.09-.8-2.68-1.35-4.65-1.08-3.94-2.47-9.41-3.91-15.47s-2.65-11.57-3.49-15.57c-.4-1.94-.72-3.54-1-4.74A13.37,13.37,0,0,1,333.67,292.77Z" style="fill:#263238"></path><path d="M430.08,323a5.66,5.66,0,0,1-1.26.13c-.81.06-2,.11-3.42.17-2.9.1-6.9.18-11.32.18s-8.42-.1-11.31-.21c-1.45-.06-2.62-.12-3.43-.17a5.92,5.92,0,0,1-1.25-.14,5.23,5.23,0,0,1,1.26-.06h3.43l11.3.06,11.31,0h3.43A5.48,5.48,0,0,1,430.08,323Z" style="fill:#263238"></path><path d="M371.48,347.49s-.25-.28-.63-.84l-1.55-2.37c-1.31-2-3.16-4.74-5.33-7.68s-4.23-5.51-5.76-7.36l-1.8-2.18a3.82,3.82,0,0,1-.62-.84,3.71,3.71,0,0,1,.77.7c.47.48,1.13,1.19,1.93,2.08,1.6,1.79,3.72,4.35,5.9,7.3s4,5.73,5.22,7.78c.62,1,1.1,1.88,1.42,2.47A4.26,4.26,0,0,1,371.48,347.49Z" style="fill:#263238"></path><path d="M377.22,347.76a12.31,12.31,0,0,1-2.47-4.13,12.51,12.51,0,0,1-1.21-4.66c.15,0,.67,2,1.69,4.46S377.35,347.68,377.22,347.76Z" style="fill:#263238"></path><path d="M393.31,305a2.27,2.27,0,0,1-.37-.43l-1-1.27-3.53-4.75L376.93,282.8l-11.37-15.86-3.4-4.85-.9-1.33a2.56,2.56,0,0,1-.29-.49,2.27,2.27,0,0,1,.37.43l1,1.27,3.53,4.75,11.5,15.77,11.37,15.86,3.4,4.85.9,1.33A2.56,2.56,0,0,1,393.31,305Z" style="fill:#263238"></path><path d="M407.06,259.12a2.18,2.18,0,0,1-.16.52,12.72,12.72,0,0,1-.6,1.47,19.17,19.17,0,0,1-3.25,4.82,22.62,22.62,0,0,1-6.95,5.1,28.42,28.42,0,0,1-4.81,1.74,29,29,0,0,1-5.44.77,23.3,23.3,0,0,1-10.34-2.08,24.16,24.16,0,0,1-7.12-4.87,22,22,0,0,1-3.58-4.57,13.21,13.21,0,0,1-.73-1.4,2.68,2.68,0,0,1-.22-.51,28.5,28.5,0,0,0,4.79,6.22,24.42,24.42,0,0,0,7.06,4.69,23.26,23.26,0,0,0,10.12,2,26.2,26.2,0,0,0,10.07-2.42,23,23,0,0,0,6.88-4.92,20.8,20.8,0,0,0,3.34-4.66C406.74,259.81,407,259.1,407.06,259.12Z" style="fill:#263238"></path><g style="opacity:0.2"><path d="M353.93,378.89c26.69,2.23,54.79,2.82,76.87-19.3-23.23,9.53-52.05,15.6-76.87,19.3"></path></g><g style="opacity:0.2"><path d="M430.73,345.66c-3.65-3.32-4.17-8.8-4.06-13.73.19-8.25,2.19-17.42,4.49-25.34-.47,14.06-1.52,26.44-.59,39.12"></path></g><path d="M346.82,347.36c0,.07-.48.4-1.28,1a11.56,11.56,0,0,0-2.66,2.73,26.46,26.46,0,0,0-1.8,3.42,5.24,5.24,0,0,1-.78,1.43,4.88,4.88,0,0,1,.44-1.57,16.77,16.77,0,0,1,1.71-3.57,9.32,9.32,0,0,1,2.88-2.74A4,4,0,0,1,346.82,347.36Z" style="fill:#263238"></path><polygon points="449.47 442.3 451.94 458.09 330.52 458.09 331.95 446.22 449.47 442.3" style="fill:#B455C3"></polygon><path d="M453,446a1.19,1.19,0,0,1-.31.11l-.91.26-3.54,1c-1.54.43-3.43.92-5.64,1.41s-4.71,1.14-7.51,1.67l-4.38.89c-1.53.3-3.13.55-4.78.84-3.29.61-6.84,1.08-10.58,1.62-7.47.95-15.73,1.74-24.42,2.14s-17,.29-24.52,0c-3.77-.21-7.34-.37-10.68-.7-1.67-.14-3.29-.25-4.83-.42l-4.45-.5c-2.83-.29-5.38-.7-7.62-1s-4.17-.62-5.74-.91l-3.61-.65-.93-.18-.32-.08.33,0,.94.13,3.63.56c1.57.25,3.49.55,5.74.83s4.79.67,7.62.93l4.45.47c1.54.16,3.16.25,4.82.39,3.34.31,6.91.45,10.67.65,7.52.28,15.8.34,24.48,0s16.92-1.17,24.38-2.1c3.73-.52,7.28-1,10.57-1.57,1.65-.28,3.25-.52,4.77-.81l4.39-.85c2.8-.51,5.31-1.11,7.52-1.59s4.1-.93,5.65-1.32l3.56-.87.93-.21A2.55,2.55,0,0,1,453,446Z" style="fill:#263238"></path><path d="M434.1,284.5a2.64,2.64,0,0,1-.05.62c-.06.45-.14,1-.25,1.76-.23,1.52-.54,3.73-.91,6.47-.73,5.46-1.58,13-2.08,21.44s-.57,16-.5,21.54c0,2.76.09,5,.13,6.53,0,.73,0,1.32,0,1.78a2.52,2.52,0,0,1,0,.62,4.35,4.35,0,0,1-.08-.62c0-.46-.08-1.05-.13-1.77-.11-1.54-.21-3.77-.3-6.53-.17-5.52-.15-13.16.35-21.58s1.41-16,2.24-21.47c.41-2.73.78-4.93,1.07-6.45.14-.71.26-1.29.35-1.74A2.33,2.33,0,0,1,434.1,284.5Z" style="fill:#263238"></path></g><g id="freepik--character-1--inject-133"><path d="M167.41,161.37a7,7,0,0,0-7.26-3.69,9.61,9.61,0,0,0-11.84.06,8.54,8.54,0,0,0-13,6.8,7.14,7.14,0,0,0-6.42,12,6.87,6.87,0,0,0,2.7,13.4L166,169.38A7,7,0,0,0,167.41,161.37Z" style="fill:#e0e0e0"></path><path d="M130.57,190.84A29.16,29.16,0,0,1,160,164.46l1.51,0c16.25,1.18,24.33,15.65,22.69,31.87l-3.14,54.16-.18,2.63-37.66,7,.25-13.81s-15.61-2.66-15.57-18.3C127.93,220.46,129.23,204.91,130.57,190.84Z" style="fill:#ffbe9d"></path><path d="M143.36,246.3a38,38,0,0,0,20.58-5.7s-5,11.18-20.57,9.55Z" style="fill:#eb996e"></path><path d="M136.72,205.32a2.24,2.24,0,0,0,2.12,2.29,2.15,2.15,0,0,0,2.34-2,2.25,2.25,0,0,0-2.12-2.29A2.15,2.15,0,0,0,136.72,205.32Z" style="fill:#263238"></path><path d="M133.83,198.54c.27.3,2-.93,4.38-.89s4.15,1.27,4.41,1c.13-.13-.14-.66-.9-1.23a6.08,6.08,0,0,0-3.53-1.14,5.86,5.86,0,0,0-3.49,1.07C134,197.89,133.69,198.41,133.83,198.54Z" style="fill:#263238"></path><path d="M159.08,205.9a2.23,2.23,0,0,0,2.12,2.29,2.14,2.14,0,0,0,2.33-2,2.24,2.24,0,0,0-2.12-2.29A2.14,2.14,0,0,0,159.08,205.9Z" style="fill:#263238"></path><path d="M157.45,199.33c.27.3,2-.93,4.38-.89s4.15,1.27,4.42,1c.13-.13-.15-.66-.91-1.23a6.23,6.23,0,0,0-3.53-1.14,5.93,5.93,0,0,0-3.49,1.07C157.57,198.68,157.31,199.2,157.45,199.33Z" style="fill:#263238"></path><path d="M148.46,217a16.44,16.44,0,0,0-3.89-.76c-.61-.07-1.19-.2-1.29-.62a3.09,3.09,0,0,1,.44-1.81c.6-1.48,1.22-3,1.88-4.65,2.62-6.62,4.52-12.06,4.25-12.17s-2.6,5.18-5.22,11.8q-.94,2.44-1.81,4.67a3.58,3.58,0,0,0-.35,2.41,1.53,1.53,0,0,0,1,.91,3.82,3.82,0,0,0,1,.16C146.94,217.14,148.45,217.17,148.46,217Z" style="fill:#263238"></path><path d="M155.51,218.8c-.39,0-.43,2.58-2.69,4.4s-5,1.49-5.06,1.86c0,.16.61.51,1.79.56a6.5,6.5,0,0,0,4.22-1.4,5.68,5.68,0,0,0,2.09-3.69C156,219.44,155.69,218.79,155.51,218.8Z" style="fill:#263238"></path><path d="M157,189.91c.23.65,2.63.38,5.45.76s5.08,1.18,5.47.6c.17-.28-.22-.9-1.13-1.54a9.57,9.57,0,0,0-8.32-1C157.39,189.09,156.86,189.59,157,189.91Z" style="fill:#e0e0e0"></path><path d="M134.81,191.6c.42.55,2.08,0,4.07,0s3.67.42,4.07-.14c.17-.28-.08-.83-.81-1.36a5.7,5.7,0,0,0-3.3-.94,5.58,5.58,0,0,0-3.26,1.05C134.87,190.77,134.63,191.33,134.81,191.6Z" style="fill:#e0e0e0"></path><path d="M132.18,183.69s4.27-9.74,9-11.95c5.76-2.69,8.13,3.63,13.6,2.18s11-4,16.47.28c6,4.69,3.13,7.89,3.4,14.83,1.12,28.16,6.14,36.19,7.8,23,.18-1.45,4.23-2.54,4.91-8.67.89-7.94,1.34-17.6-.35-23.27-1.43-4.78-4.1-8.11-8.91-11.8-7.59-5.83-18.14-6.11-25.32-5.49S131.71,171.42,132.18,183.69Z" style="fill:#e0e0e0"></path><path d="M181.49,211.55a4.24,4.24,0,0,1,4.64-4c2.92.32,6.14,2,5.86,8.05-.5,10.68-11.13,8-11.13,7.67S181.24,216,181.49,211.55Z" style="fill:#ffbe9d"></path><path d="M183.37,219.34s.18.14.49.3a1.9,1.9,0,0,0,1.39.09c1.15-.36,2.18-2.11,2.32-4a6.17,6.17,0,0,0-.39-2.69,2.16,2.16,0,0,0-1.34-1.5,1,1,0,0,0-1.12.46c-.16.29-.1.51-.16.53s-.22-.19-.11-.63a1.16,1.16,0,0,1,.45-.65,1.4,1.4,0,0,1,1-.23,2.64,2.64,0,0,1,1.87,1.75,6.42,6.42,0,0,1,.51,3c-.17,2.15-1.37,4.12-2.93,4.49a2,2,0,0,1-1.69-.36C183.38,219.6,183.33,219.36,183.37,219.34Z" style="fill:#eb996e"></path><path d="M181.58,190.83a10.2,10.2,0,0,1-4.56,2c-1.67.14-3.57-.85-3.83-2.51-.12-.75.08-1.61-.4-2.19s-1.66-.5-2.56-.42a6.82,6.82,0,0,1-7-5c-.81,1.17-2.66,1.09-3.85.3a15.69,15.69,0,0,1-2.87-3.15,4.38,4.38,0,0,0-3.64-1.89,10.15,10.15,0,0,1-2.33.47c-1.4-.14-2.07-1.8-2.26-3.19s-.33-3-1.51-3.8-2.53-.34-3.82-.16-3-.16-3.28-1.43a2.58,2.58,0,0,1,.51-1.93,6.91,6.91,0,0,1,8.21-2.5,9.39,9.39,0,0,1,17.28-1.57,9.53,9.53,0,0,1,15.18,3.69,6.91,6.91,0,0,1,7.64,10.16c1.9,1.13,3.52,3.06,3.53,5.27s-2.18,4.39-4.31,3.78a3.83,3.83,0,0,1-6.67,3.72" style="fill:#e0e0e0"></path><path d="M188.48,186.79a2.52,2.52,0,0,1-.69,2,3.51,3.51,0,0,1-2.16,1.25,3.71,3.71,0,0,1-3-.93l.45-.06a10.55,10.55,0,0,1-2.17,2.63,6.15,6.15,0,0,1-2,1.19,4.09,4.09,0,0,1-2.15.16,4.18,4.18,0,0,1-3.06-1.81,6,6,0,0,1-.83-2.24c-.11-.55-.11-.86-.07-.86a2.94,2.94,0,0,1,.3.8,7,7,0,0,0,1,2c1,1.55,4.28,2.38,6.42.25a11,11,0,0,0,2.07-2.47l.19-.32.26.25a3.24,3.24,0,0,0,2.57.86,3.1,3.1,0,0,0,1.95-1A5.15,5.15,0,0,0,188.48,186.79Z" style="fill:#fff"></path><path d="M168.63,162.07s-.28.07-.76.27a3.66,3.66,0,0,0-1.68,1.38l-.13.21-.14-.21a13.45,13.45,0,0,0-5.11-4.26,10.58,10.58,0,0,0-4.2-1,8.62,8.62,0,0,0-4.55,1.23,8.9,8.9,0,0,0-2.73,2.51,7.13,7.13,0,0,0-1.22,3.21l0,.34-.33-.1a6,6,0,0,0-4.45.48,5.81,5.81,0,0,0-2.47,2.57,8,8,0,0,0-.71,3.16A2.31,2.31,0,0,1,140,171a6.13,6.13,0,0,1,3.07-5.27,6.41,6.41,0,0,1,4.84-.6l-.36.24a7.79,7.79,0,0,1,1.29-3.49,9.38,9.38,0,0,1,7.79-4A10.79,10.79,0,0,1,161,159a13,13,0,0,1,5.15,4.56h-.28a3.64,3.64,0,0,1,1.9-1.37A1.67,1.67,0,0,1,168.63,162.07Z" style="fill:#fff"></path><path d="M159.17,220.41c-.18,0-.23-1.13-1.12-2.07s-2-1.13-2-1.3.3-.16.79-.07a3,3,0,0,1,1.63.95,3.17,3.17,0,0,1,.81,1.71C159.35,220.12,159.24,220.42,159.17,220.41Z" style="fill:#eb996e"></path><path d="M160.16,217.47c-.15.09-.53-.29-1.1-.55s-1.09-.34-1.11-.52.63-.4,1.38,0S160.31,217.4,160.16,217.47Z" style="fill:#eb996e"></path><path d="M172.57,242.67s.15-.07.28-.27a.92.92,0,0,0,0-1c-.16-.4-.64-.77-1-1.46a1.38,1.38,0,0,1,0-1.25,7.46,7.46,0,0,1,.7-.9c.83-1.06-1.58-1.81-1.26-3.17a1.63,1.63,0,0,1,.59-1.14c.24-.18.41-.2.43-.17a2.22,2.22,0,0,0-.59,1.33c0,.45.26.83.78,1.27a2.73,2.73,0,0,1,.71.89,1.32,1.32,0,0,1-.16,1.34c-.26.36-.54.59-.68.84a.82.82,0,0,0,0,.75c.2.52.67,1,.85,1.51a1.14,1.14,0,0,1-.27,1.27C172.76,242.78,172.56,242.7,172.57,242.67Z" style="fill:#eb996e"></path><path d="M175.88,242.21s0-.16-.13-.39a3.82,3.82,0,0,0-.59-.9,4.59,4.59,0,0,1-.45-.69,1.58,1.58,0,0,1-.15-1c.19-.77.83-1.24,1.13-1.79s0-1-.41-1.48a3.46,3.46,0,0,1-.57-.79,2,2,0,0,1-.16-.87c.11-1.12.86-1.44.86-1.36a2.79,2.79,0,0,0-.42,1.36,1.79,1.79,0,0,0,.7,1.27,2.79,2.79,0,0,1,.66.89,1.48,1.48,0,0,1-.12,1.28c-.43.7-1,1.13-1.11,1.63s.17,1,.4,1.35a2.78,2.78,0,0,1,.46,1.1C176,242.07,175.91,242.22,175.88,242.21Z" style="fill:#eb996e"></path><path d="M62.41,289.55s2.39,9.66,4,12.31a12.9,12.9,0,0,1,1.81,4.86l1,15.47-12.66,12.5L32,316.37s-8.8-8.6-6.42-11.86c0,0,1.17-1.59,3.22,0,0,0-9.18-7.11-7.06-9.9s5.29,1.25,8.61,4.07,4.41,3.61,4.41,3.61l-9.55-9.23s-2.69-2.38-.3-4.31,5.92,2.91,7.59,3.92,11.07,10,11.07,10-6.51-8.29-7-8.74-6.36-4.87-4.16-7.42,7.82,3.65,9.68,5.06,8.85,9.77,10.41,10.62,4.38,3.29,6.12,2.51-1.82-7.25-1.26-9.58S58.9,288.35,62.41,289.55Z" style="fill:#ffbe9d"></path><path d="M56.4,319.44a13.16,13.16,0,0,1-.89-2.28,9.73,9.73,0,0,1,.68-5.75c.84-2.18,2-4,2.63-5.43a4.59,4.59,0,0,0,.44-1.84c0-.45-.11-.69-.14-.68a6.71,6.71,0,0,1-.72,2.33,44,44,0,0,0-2.82,5.38,9.26,9.26,0,0,0-.52,6.1A3.67,3.67,0,0,0,56.4,319.44Z" style="fill:#eb996e"></path><path d="M39.3,314.41c.07,0-.31-.9-1.51-1.7s-3.06-1.42-4.41-2.87a14.74,14.74,0,0,1-1.57-2.43,9.39,9.39,0,0,0-1.45-2c-1-1-2-1.12-2-1A7.37,7.37,0,0,1,30,305.72a10.29,10.29,0,0,1,1.26,2,13.17,13.17,0,0,0,1.61,2.57A7.72,7.72,0,0,0,35.4,312c.82.41,1.56.74,2.15,1.07A15.08,15.08,0,0,1,39.3,314.41Z" style="fill:#eb996e"></path><polygon points="109.33 457.81 187.86 457.81 187.86 429.38 109.33 420.58 109.33 457.81" style="fill:#263238"></polygon><polygon points="143.39 251.91 149.06 255.48 181.71 241.45 183.19 248.67 153.65 309.93 151.89 426.75 119.92 424.13 139.68 266.36 143.39 251.91" style="fill:#B455C3"></polygon><path d="M173.94,255a6.51,6.51,0,0,1-1.14.7l-3.19,1.78c-2.69,1.49-6.39,3.58-10.46,5.93l-5.13,3-.22.12-.11-.21c-1.6-2.87-2.53-5.49-3.35-7.26-.4-.9-.72-1.6-1-2.08a2.88,2.88,0,0,1-.32-.76,3.7,3.7,0,0,1,.47.68c.27.46.65,1.15,1.08,2,.9,1.75,1.9,4.35,3.5,7.14l-.34-.08c1.57-.95,3.3-2,5.12-3,4.07-2.35,7.81-4.39,10.55-5.81,1.37-.71,2.49-1.26,3.27-1.63A6.64,6.64,0,0,1,173.94,255Z" style="fill:#263238"></path><path d="M136.71,260.73,120,267.12a13.78,13.78,0,0,0-5.5,3.85c-3.64,4.18-10.09,13.21-14,28-5.23,20-10.81,35.12-10.81,35.12L71.12,320.29,45.23,345.85s43.58,37.94,57.42,37.77l-9.38,74.29H120l22.11-197.18,1.26-8.82C142.93,252.09,138,259,136.71,260.73Z" style="fill:#ebebeb"></path><path d="M112,285.57a.79.79,0,0,1,0,.27c0,.21,0,.47-.07.8-.08.74-.2,1.76-.34,3.06-.31,2.69-.74,6.52-1.28,11.23-1.08,9.49-2.46,22.61-3.83,37.12s-2.5,27.65-3.32,37.17c-.41,4.72-.75,8.56-1,11.26-.12,1.3-.22,2.32-.29,3.06,0,.33-.06.59-.09.8a1.14,1.14,0,0,1,0,.27,1.23,1.23,0,0,1,0-.28c0-.21,0-.47,0-.79,0-.75.11-1.77.19-3.07.2-2.71.48-6.55.82-11.28.73-9.53,1.8-22.68,3.17-37.19s2.81-27.63,4-37.11c.58-4.74,1.08-8.57,1.45-11.22.18-1.29.33-2.31.44-3l.12-.79A1,1,0,0,1,112,285.57Z" style="fill:#263238"></path><path d="M191.93,360.12a35.74,35.74,0,0,0-5.47-3.67,36,36,0,0,0-6.24-2.11,5.55,5.55,0,0,1,2,.14,17.52,17.52,0,0,1,8.44,4.17A5.39,5.39,0,0,1,191.93,360.12Z" style="fill:#263238"></path><path d="M215.58,273.41s-6.64-5.18-13.33-10.57-17.82-13.4-17.82-13.4l-2-6.73s-5.89,6.2-11,17.42c-7.42,16.12-16,39.64-17.72,49.8L143.39,457.81h76.52l-17.8-105.12Z" style="fill:#ebebeb"></path><path d="M153.18,319.41a6.3,6.3,0,0,1,.35-.73l1.1-2,4.1-7.41c3.54-6.27,8.38-14.86,13.72-24.35l.73-1.28,0,.2q-.85-2.93-1.68-5.72l-.05-.17.15-.11,4.1-2.89-.09.12c2.53-7.43,4.71-13.83,6.28-18.42.78-2.22,1.4-4,1.85-5.3.21-.58.38-1,.52-1.4a3.2,3.2,0,0,1,.2-.48,2.75,2.75,0,0,1-.12.5c-.12.37-.26.85-.44,1.44-.42,1.29-1,3.09-1.72,5.34l-6.1,18.48,0,.07-.06.05-4.1,2.91.1-.28c.55,1.85,1.12,3.76,1.69,5.71l0,.11-.06.09-.73,1.28c-5.39,9.46-10.28,18-13.85,24.28l-4.25,7.33c-.49.83-.88,1.49-1.18,2A4.9,4.9,0,0,1,153.18,319.41Z" style="fill:#263238"></path><path d="M135.15,323a2.79,2.79,0,0,1-.15-.66c-.09-.5-.2-1.14-.34-1.94-.28-1.74-.67-4.16-1.14-7.12-.93-6.07-2.19-14.36-3.59-23.52q-.21-1.43-.42-2.82v-.08l0-.08,3.48-6.3.14.35-3.47-1.14-.23-.08.08-.23,5.1-13.45c.62-1.6,1.12-2.88,1.49-3.82.16-.41.3-.74.41-1a1.65,1.65,0,0,1,.17-.34,1.41,1.41,0,0,1-.1.37l-.34,1c-.34.95-.79,2.25-1.36,3.87L130,279.52l-.15-.31,3.47,1.12.29.09-.14.27L130,287l0-.16c.14.93.28,1.87.43,2.82,1.33,9.16,2.54,17.46,3.43,23.54.41,3,.74,5.4,1,7.14.1.81.18,1.45.24,2A3.17,3.17,0,0,1,135.15,323Z" style="fill:#263238"></path><path d="M142.06,261.35a20.75,20.75,0,0,1,1.79,3.5l-.42,0c.44-.85,1-1.78,1.63-2.75,1.06-1.65,2.07-3.1,2.79-4.16a11.26,11.26,0,0,1,1.21-1.7,6.45,6.45,0,0,1-.9,1.89c-.64,1.12-1.6,2.61-2.66,4.25-.63,1-1.2,1.88-1.66,2.69l-.24.42-.18-.44A22,22,0,0,1,142.06,261.35Z" style="fill:#263238"></path><path d="M133.24,425.22a2.09,2.09,0,0,1,0-.44c0-.31.06-.73.1-1.28.09-1.15.23-2.8.41-4.91.38-4.29.93-10.46,1.61-18.06,1.41-15.27,3.36-36.32,5.52-59.57s4.21-44.31,5.67-59.57c.74-7.6,1.35-13.76,1.77-18.05l.51-4.9c.06-.54.11-1,.15-1.27a2,2,0,0,1,.07-.44s0,.15,0,.44,0,.74-.09,1.28c-.1,1.15-.24,2.8-.42,4.91-.38,4.29-.93,10.46-1.61,18.06-1.41,15.27-3.36,36.33-5.51,59.59s-4.22,44.29-5.67,59.55c-.75,7.6-1.36,13.76-1.78,18.05-.22,2.11-.39,3.76-.51,4.9-.06.55-.11,1-.15,1.28A2.33,2.33,0,0,1,133.24,425.22Z" style="fill:#263238"></path><g style="opacity:0.2"><polygon points="183.71 251.59 176.44 277.79 173.4 278.95 175.49 285.51 154.65 316.81 173.4 283.74 171.72 278.02 175.81 275.12 183.71 251.59"></polygon></g><g style="opacity:0.2"><polygon points="149.91 257.81 151.82 271.45 170.38 257.06 153.9 266.2 149.91 257.81"></polygon></g><g style="opacity:0.2"><path d="M101.77,390.61l-.79,6.2s3.75,4.82,7.4,3.81,18.92-7.68,18.92-7.68l-.23-2.33s-8.91-3.66-9.42-3.53S101.77,390.61,101.77,390.61Z"></path></g><g style="opacity:0.2"><path d="M131.18,404.42l.46,5.71s27.65-3.17,39.56-7.7c0,0,23.25-8.62,29.85-16.75a245.23,245.23,0,0,1-32.34,10.44Z"></path></g><path d="M152.91,364.91l-34.66-45.8a2.84,2.84,0,0,0-3.18-1L62,336.24a2.84,2.84,0,0,0-1.27,4.5l43.16,51.94a2.83,2.83,0,0,0,3.15.85l49.61-18.07A2.85,2.85,0,0,0,157.9,371Z" style="fill:#455a64"></path><path d="M82.55,334.71A1.48,1.48,0,1,0,84,333.18,1.48,1.48,0,0,0,82.55,334.71Z" style="fill:#263238"></path><path d="M93.27,331.08a1.47,1.47,0,1,0,1.42-1.53A1.47,1.47,0,0,0,93.27,331.08Z" style="fill:#263238"></path><path d="M124,373l-2.78-.63s-1.14-4.61-2.4-5.54-13.68-6.08-16.42-7.45-13.41-5.79-14.64-3.2c-1.39,2.93,3,5.15,5.33,6.17s9.07,3.35,7.78,5-16.7,1.54-16.7,1.54l-1.77-2.06s-2.73,2.73-2.27,5.4a11.73,11.73,0,0,0,1.62,4.35l1.1,0a3.07,3.07,0,0,0,0,3.18,29.3,29.3,0,0,0,3.06,3.56s1.86,3.59,7.14,4.84c.62.14,25.12,1.41,25.12,1.41l8.9,2Z" style="fill:#ffbe9d"></path><path d="M188.42,285.73c-.28.6-7.56,68.23-7.56,68.23l-57.08,17.3,5.45,33.53s77.1-13.81,85.06-28.27c6.77-12.3,8.39-64.6,8.72-80a40.46,40.46,0,0,0-1.27-11.12c-1.13-4.34-3.07-9.57-6.16-12C209.79,268.86,188.42,285.73,188.42,285.73Z" style="fill:#ebebeb"></path><path d="M186.82,299.85s0,.34-.08,1-.16,1.64-.28,2.89c-.27,2.55-.66,6.26-1.15,11-1,9.47-2.48,23-4.23,39.27l0,.15-.14,0-57.06,17.34.18-.29c0,.22.07.46.11.69,1.87,11.5,3.67,22.6,5.32,32.84l-.29-.21c23.22-4.41,43-9.22,56.85-13.54,1.73-.51,3.34-1.1,4.88-1.6l2.23-.75,2.07-.77c1.32-.51,2.56-.95,3.68-1.4l3-1.32a20.42,20.42,0,0,0,2.36-1.11l1.69-.89,1-.54.35-.17a2.75,2.75,0,0,1-.33.21l-1,.57-1.67.93a19.9,19.9,0,0,1-2.35,1.15l-3,1.36c-1.12.47-2.36.92-3.68,1.44l-2.06.79-2.23.76c-1.53.51-3.14,1.12-4.88,1.63-13.79,4.42-33.62,9.3-56.85,13.74l-.25.05,0-.25c-1.66-10.24-3.47-21.33-5.34-32.83,0-.24-.08-.48-.11-.69l0-.23.22-.06,57.08-17.27-.15.18c1.83-16.26,3.35-29.78,4.41-39.25.55-4.71,1-8.42,1.27-11,.15-1.25.27-2.21.35-2.89S186.82,299.85,186.82,299.85Z" style="fill:#263238"></path><path d="M211.94,271.93c0,.11-1.61,0-4.16.31a26.42,26.42,0,0,0-4.4,1,28.73,28.73,0,0,0-5,2.24,28.18,28.18,0,0,0-4.44,3.26,24.81,24.81,0,0,0-3,3.32c-1.56,2-2.25,3.51-2.34,3.46a4.3,4.3,0,0,1,.44-1,10.29,10.29,0,0,1,.64-1.17,14.53,14.53,0,0,1,1-1.47,23,23,0,0,1,3-3.45,27.55,27.55,0,0,1,4.51-3.36,26.65,26.65,0,0,1,5.15-2.24,22.46,22.46,0,0,1,4.49-.91,14.42,14.42,0,0,1,1.76-.11,10.93,10.93,0,0,1,1.33,0A4.3,4.3,0,0,1,211.94,271.93Z" style="fill:#263238"></path></g><g id="freepik--Table--inject-133"><path d="M714.11,458.09c0,.14-151.84.26-339.09.26s-339.13-.12-339.13-.26,151.81-.26,339.13-.26S714.11,458,714.11,458.09Z" style="fill:#263238"></path></g></svg>
